<svg width="82" height="35" viewBox="0 0 82 35" fill="none" xmlns="http://www.w3.org/2000/svg">
<path d="M50.0459 2.79063V4.50653L49.5016 3.86608C49.0972 3.39174 48.6054 3.03545 48.0262 2.79719C47.4426 2.55893 46.7606 2.43652 45.9824 2.43652C45.2042 2.43652 44.4785 2.58735 43.8118 2.89337C43.1386 3.19939 42.5178 3.66279 41.9517 4.27702C41.3899 4.88687 40.9702 5.56449 40.6904 6.31205C40.4084 7.05962 40.2686 7.88587 40.2686 8.78208C40.2686 9.67828 40.4084 10.5177 40.6904 11.2696C40.9702 12.0215 41.3921 12.7013 41.9517 13.3112C42.5112 13.9167 43.1277 14.3735 43.7965 14.6752C44.4632 14.9746 45.1955 15.1276 45.9824 15.1276C46.7693 15.1276 47.4426 15.0074 48.0262 14.767C48.6054 14.5309 49.0972 14.1724 49.5016 13.6981L50.0459 13.0598V14.7735H53.2067V2.79063H50.0459ZM43.6566 10.1548C43.5058 9.74604 43.4293 9.28701 43.4293 8.78208C43.4293 8.27714 43.5058 7.81593 43.6566 7.40936C43.8118 6.99186 44.0457 6.629 44.3517 6.3208C44.6578 6.01478 45.0141 5.78308 45.4163 5.63007C45.8141 5.47706 46.2556 5.39836 46.7365 5.39836C47.2174 5.39836 47.6589 5.47487 48.0546 5.62788C48.4568 5.7787 48.8131 6.01259 49.1213 6.3208C49.4317 6.63119 49.6656 6.99404 49.8164 7.40936C49.9672 7.81811 50.0437 8.27714 50.0437 8.78208C50.0437 9.28701 49.9672 9.74604 49.8164 10.1548C49.6634 10.5723 49.4317 10.9351 49.1213 11.2434C48.8153 11.5494 48.459 11.7811 48.0546 11.9363C47.6568 12.0893 47.2152 12.1658 46.7343 12.1658C46.2534 12.1658 45.8097 12.0893 45.4141 11.9363C45.0119 11.7811 44.6556 11.5494 44.3496 11.2434C44.0414 10.9351 43.8097 10.5701 43.6545 10.1548H43.6566ZM65.9961 2.89337C65.3295 2.58735 64.6037 2.43652 63.8234 2.43652C63.043 2.43652 62.3632 2.55675 61.7796 2.79719C61.2025 3.03326 60.7085 3.39174 60.3042 3.86608L59.7599 4.50435V2.79063H56.5991V19.6021H59.7599V13.0598L60.3042 13.6981C60.7085 14.1724 61.2025 14.5309 61.7796 14.767C62.3654 15.0074 63.0496 15.1276 63.8256 15.1276C64.6016 15.1276 65.3447 14.9768 66.0114 14.6752C66.6825 14.3735 67.2989 13.9167 67.8563 13.3112C68.4159 12.7013 68.8378 12.0193 69.1175 11.2696C69.3973 10.5177 69.5372 9.68702 69.5372 8.78208C69.5372 7.87713 69.3952 7.05962 69.1175 6.31205C68.8378 5.56449 68.4159 4.88469 67.8563 4.27702C67.2902 3.66279 66.6694 3.19939 65.9961 2.89337ZM61.7599 11.9341C61.3599 11.7811 61.0014 11.5494 60.6867 11.2434C60.3763 10.933 60.1424 10.5679 59.9894 10.1526C59.8386 9.74386 59.7621 9.28482 59.7621 8.77989C59.7621 8.27496 59.8386 7.81374 59.9894 7.40717C60.1446 6.98967 60.3785 6.62682 60.6845 6.31861C61.0036 6.01041 61.3621 5.7787 61.7621 5.62569C62.1621 5.47268 62.5993 5.39618 63.0715 5.39618C64.0289 5.39618 64.818 5.70438 65.4322 6.31861C66.0639 6.93284 66.3808 7.75472 66.3808 8.77989C66.3808 9.28701 66.3022 9.74823 66.147 10.1548C65.9896 10.5679 65.7491 10.933 65.4322 11.2412C65.1262 11.5472 64.7721 11.7789 64.3742 11.9341C63.9808 12.0871 63.5458 12.1636 63.0736 12.1636C62.6015 12.1636 62.1643 12.0871 61.7665 11.9341H61.7599ZM81.3824 2.78845H70.6608V5.79838H74.4664V14.7713H77.6271V5.80056H81.3824V2.79063V2.78845Z" fill="white"/>
<path d="M50.9011 20.2217L45.0583 27.0481V20.2217H41.998V32.2046H44.3194L50.1644 25.3781V32.2046H53.2246V20.2217H50.9032H50.9011ZM64.6785 20.2217V24.7573H59.7757V20.2217H56.6149V32.2046H59.7757V27.6689H64.6785V32.2046H67.8393V20.2217H64.6785Z" fill="white"/>
<path d="M70.6611 32.2031H81.3828V29.1931H77.6275V15.3916H74.4667V29.1931H70.6611V32.2031Z" fill="white"/>
<path fill-rule="evenodd" clip-rule="evenodd" d="M2.38696 0H17.5V3.14983L5.82313 10.0353V31.7518L11.5916 31.8502V27.1178L17.4978 23.7122V35H2.38696C1.07326 35 0 33.9267 0 32.6109V2.38696C0 1.07326 1.07326 0 2.38696 0ZM17.5 16.7087L11.5938 20.1187V13.3075L17.5 9.90632V16.7087Z" fill="white"/>
<path fill-rule="evenodd" clip-rule="evenodd" d="M32.6109 0H17.5V3.14864L29.1769 10.0341V31.7506L23.4062 31.849V27.1166L17.5 23.711V35H32.6109C33.9267 35 35 33.9246 35 32.6109V2.38696C35 1.07326 33.9246 0 32.6109 0ZM17.5 16.7075L23.4062 20.1175V13.3063L17.5 9.90513V16.7075Z" fill="white"/>
</svg>
