<svg width="122" height="40" viewBox="0 0 122 40" fill="none" xmlns="http://www.w3.org/2000/svg">
<path d="M33.3694 8.4214C33.3694 13.443 30.1584 16.8428 25.075 16.8428C19.9915 16.8428 16.7773 13.443 16.7773 8.4214C16.7773 3.39982 20.0209 0 25.075 0C30.1291 0 33.3694 3.39982 33.3694 8.4214ZM29.0024 8.4214C29.0024 5.86502 27.817 3.65057 25.0717 3.65057C22.3265 3.65057 21.1411 5.86502 21.1411 8.4214C21.1411 10.9778 22.3558 13.2248 25.0717 13.2248C27.7877 13.2248 29.0024 11.0103 29.0024 8.4214Z" fill="#E95229"/>
<path d="M49.242 11.0396C48.8381 14.5013 45.9366 16.8395 41.9115 16.8395C36.9518 16.8395 33.832 13.5016 33.832 8.41814C33.832 3.33469 36.955 0 41.9148 0C45.9366 0 48.6818 2.24375 49.1182 5.51982H44.7838C44.4418 4.33445 43.5365 3.64732 41.9441 3.64732C39.2314 3.64732 38.2023 5.82919 38.2023 8.38883C38.2023 10.9485 39.2607 13.2215 41.9441 13.2215C43.6603 13.2215 44.6893 12.4106 44.9368 11.0396H49.242Z" fill="#95C12B"/>
<path d="M49.21 0.403809H64.0891V4.05438H58.8493V16.4357H54.4823V4.05438H49.21V0.403809Z" fill="#E95229"/>
<path d="M79.9836 8.4214C79.9836 13.443 76.7727 16.8428 71.686 16.8428C66.5993 16.8428 63.3916 13.443 63.3916 8.4214C63.3916 3.39982 66.6351 0 71.6892 0C76.7434 0 79.9869 3.39982 79.9869 8.4214M75.6166 8.4214C75.6166 5.86502 74.4313 3.65057 71.686 3.65057C68.9407 3.65057 67.7554 5.86502 67.7554 8.4214C67.7554 10.9778 68.97 13.2248 71.686 13.2248C74.4019 13.2248 75.6166 11.0103 75.6166 8.4214Z" fill="#95C12B"/>
<path d="M96.4485 11.9775C96.4485 14.9084 94.3904 16.439 90.7724 16.439H81.3545V0.403809H90.5249C93.7684 0.403809 95.579 1.993 95.579 4.49076C95.579 6.05064 94.6118 7.17414 93.6772 7.63983V8.26508C95.2045 8.66889 96.4518 9.9194 96.4518 11.9775M85.6271 6.64333H89.3395C90.7431 6.64333 91.212 5.9562 91.212 5.11601C91.212 4.27583 90.7431 3.55613 89.3395 3.55613H85.6271V6.64333ZM92.0522 11.5086C92.0522 10.4795 91.4888 9.69796 89.7759 9.69796H85.6271V13.2834H89.7759C91.4921 13.2834 92.0522 12.5344 92.0522 11.5053V11.5086Z" fill="#E95229"/>
<path d="M114.038 5.97248C114.038 9.80867 112.26 11.4923 109.547 11.4923C106.678 11.4923 104.587 8.65586 102.591 8.65586C101.656 8.65586 101.031 9.28112 101.031 10.8703H98.0352C98.0352 7.03411 99.8132 5.35048 102.493 5.35048C105.395 5.35048 107.482 8.18692 109.482 8.18692C110.416 8.18692 111.042 7.56167 111.042 5.97248H114.035H114.038Z" fill="#00A0E3"/>
<path d="M11.0396 33.7605V27.3679H4.36701V33.7605H0V17.7318H4.36701V23.7173H11.0396V17.7318H15.4067V33.7605H11.0396Z" fill="#006EB6"/>
<path d="M28.8493 33.7605V32.2625H28.2241C27.3513 33.3534 26.0715 34.1643 23.857 34.1643C19.4282 34.1643 16.7773 30.6082 16.7773 25.7429C16.7773 20.8776 19.4282 17.3215 23.857 17.3215C26.0715 17.3215 27.3513 18.1324 28.2241 19.2233H28.8493V17.7253H33.0893V33.7572H28.8493V33.7605ZM24.9806 20.9428C22.359 20.9428 21.1444 23.0628 21.1444 25.7462C21.1444 28.4295 22.3623 30.5495 24.9806 30.5495C27.5988 30.5495 28.8786 28.2732 28.8786 25.7462C28.8786 23.2191 27.6932 20.9428 24.9806 20.9428Z" fill="#00A0E3"/>
<path d="M51.346 23.2972C51.346 27.1334 49.568 28.8171 46.8553 28.8171C43.9863 28.8171 41.8956 25.9806 39.8993 25.9806C38.9647 25.9806 38.3394 26.6059 38.3394 28.1951H35.3467C35.3467 24.3589 37.1247 22.6752 39.8049 22.6752C42.7064 22.6752 44.7939 25.5117 46.7901 25.5117C47.7248 25.5117 48.35 24.8864 48.35 23.2972H51.3428H51.346Z" fill="#006EB6"/>
<path d="M70.7904 30.1425V38.2219H66.6742V33.7605H54.7911V38.2219H50.6748V30.1425H53.0456C53.8239 28.1462 54.511 25.4954 54.511 22.3463V17.7318H67.954V30.1457H70.7937L70.7904 30.1425ZM63.587 21.3791H58.4416V22.3756C58.4416 25.5573 57.8783 28.1462 57.1944 30.1425H63.587V21.3791Z" fill="#00A0E3"/>
<path d="M87.1936 25.7462C87.1936 30.7677 83.9827 34.1676 78.896 34.1676C73.8092 34.1676 70.6016 30.7677 70.6016 25.7462C70.6016 20.7246 73.8451 17.3248 78.896 17.3248C83.9468 17.3248 87.1936 20.7246 87.1936 25.7462ZM82.8266 25.7462C82.8266 23.1898 81.6412 20.9753 78.896 20.9753C76.1507 20.9753 74.9653 23.1898 74.9653 25.7462C74.9653 28.3025 76.18 30.5495 78.896 30.5495C81.6119 30.5495 82.8266 28.3351 82.8266 25.7462Z" fill="#006EB6"/>
<path d="M99.6041 33.7605V27.3679H92.9315V33.7605H88.5645V17.7318H92.9315V23.7173H99.6041V17.7318H103.971V33.7605H99.6041Z" fill="#00A0E3"/>
<path d="M107.899 40L111.299 32.1094L104.499 17.7318H109.052L113.044 26.277H113.855L117.535 17.7318H121.934L112.266 40H107.899Z" fill="#006EB6"/>
<path d="M4.98901 14.9377H4.36375V23.4112H0V0.40381H4.24326V1.90182H4.86852C5.73801 0.810877 7.01783 0 9.23227 0C13.6612 0 16.312 3.55613 16.312 8.4214C16.312 13.2867 13.5993 16.8428 9.23227 16.8428C7.0797 16.8428 5.83245 16.0645 4.98901 14.941M4.2107 8.4214C4.2107 10.9485 5.39608 13.1922 8.10877 13.1922C10.8215 13.1922 11.945 11.1015 11.945 8.4214C11.945 5.74127 10.7303 3.61801 8.10877 3.61801C5.48726 3.61801 4.2107 5.89433 4.2107 8.4214Z" fill="#95C12B"/>
</svg>
