<svg width="22" height="22" viewBox="0 0 22 22" fill="none" xmlns="http://www.w3.org/2000/svg">
<path fill-rule="evenodd" clip-rule="evenodd" d="M1.54648 1.54648C0 3.09296 0 5.58197 0 10.56V11.44C0 16.418 0 18.907 1.54648 20.4535C3.09296 22 5.58197 22 10.56 22H11.44C16.418 22 18.907 22 20.4535 20.4535C22 18.907 22 16.418 22 11.44V10.56C22 5.58197 22 3.09296 20.4535 1.54648C18.907 0 16.418 0 11.44 0H10.56C5.58197 0 3.09296 0 1.54648 1.54648ZM11.3737 6.31443C10.0502 6.88717 7.41453 8.06771 3.45537 9.84436C2.8219 10.1132 2.48254 10.3703 2.44861 10.6275C2.39851 11.0623 2.92523 11.2312 3.63576 11.459C3.72744 11.4884 3.82219 11.5188 3.91916 11.5509C4.62049 11.7846 5.54807 12.0535 6.03448 12.0652C6.47564 12.0769 6.96205 11.8898 7.50503 11.5041C11.204 8.92097 13.1044 7.61186 13.2288 7.58848C13.3193 7.5651 13.4325 7.54172 13.5116 7.61186C13.5908 7.68199 13.5908 7.82225 13.5795 7.85731C13.5255 8.08967 11.3188 10.2065 10.3146 11.1698C10.0559 11.418 9.87699 11.5896 9.83528 11.6327C9.72918 11.7455 9.62116 11.8524 9.51727 11.9551C8.86798 12.5973 8.38071 13.0792 9.54117 13.8652C10.0687 14.2251 10.4942 14.525 10.9132 14.8204C11.4197 15.1775 11.9166 15.5278 12.5728 15.9691C12.7273 16.074 12.8753 16.1828 13.0197 16.2889C13.5832 16.7031 14.0917 17.0769 14.722 17.0211C15.084 16.986 15.4573 16.6354 15.6496 15.5834C16.1021 13.1054 16.9844 7.71705 17.188 5.49624C17.2106 5.30922 17.188 5.06377 17.1654 4.94688C17.1428 4.83 17.1088 4.67805 16.9731 4.56116C16.8034 4.4209 16.5545 4.39752 16.4414 4.39752C15.9324 4.40921 15.1406 4.68973 11.3737 6.31443Z" fill="#939393"/>
</svg>
