<svg width="22" height="22" viewBox="0 0 22 22" fill="none" xmlns="http://www.w3.org/2000/svg">
<path fill-rule="evenodd" clip-rule="evenodd" d="M1.54648 1.54648C0 3.09296 0 5.58197 0 10.56V11.44C0 16.418 0 18.907 1.54648 20.4535C3.09296 22 5.58197 22 10.56 22H11.44C16.418 22 18.907 22 20.4535 20.4535C22 18.907 22 16.418 22 11.44V10.56C22 5.58197 22 3.09296 20.4535 1.54648C18.907 0 16.418 0 11.44 0H10.56C5.58197 0 3.09296 0 1.54648 1.54648ZM4.70383 14.567L3.66797 18.3333L7.53941 17.3225C8.60598 17.9018 9.81009 18.2068 11.032 18.2074C15.057 18.2074 18.3328 14.9471 18.3346 10.9401C18.3352 8.99796 17.5763 7.17196 16.1978 5.79818C14.8187 4.4244 12.9852 3.66724 11.032 3.66663C7.00705 3.66663 3.73121 6.9269 3.72937 10.9333C3.72876 12.2148 4.06463 13.4646 4.70383 14.567ZM11.0295 16.9797C9.73026 16.9791 8.74782 16.6148 7.71871 16.0068L5.42102 16.6063L6.03443 14.377C5.36207 13.3118 4.96173 12.2937 4.96234 10.934C4.96357 7.6034 7.68678 4.89374 11.0345 4.89374C14.3907 4.89496 17.1029 7.60096 17.1017 10.9388C17.0998 14.27 14.3748 16.9797 11.0295 16.9797ZM14.461 12.5044C14.5883 12.5656 14.6741 12.6068 14.7106 12.6677C14.7567 12.7435 14.7567 13.1071 14.6044 13.5318C14.4521 13.9559 13.7233 14.3433 13.3727 14.3953C13.0583 14.4417 12.6604 14.4613 12.2232 14.3232C11.9586 14.2395 11.6184 14.1276 11.1831 13.9406C9.47544 13.2069 8.32093 11.561 8.09942 11.2452C8.08349 11.2225 8.07239 11.2067 8.06625 11.1986L8.06408 11.1957C7.96549 11.0645 7.32143 10.2073 7.32143 9.32001C7.32143 8.48474 7.73304 8.04684 7.92335 7.84437C7.93675 7.83013 7.94904 7.81704 7.96002 7.80507C8.12704 7.62296 8.32475 7.57774 8.44633 7.57774L8.79633 7.58385C8.80935 7.58449 8.82289 7.58441 8.83689 7.58432C8.9431 7.58369 9.07583 7.5829 9.20711 7.89551C9.25387 8.00763 9.32089 8.17016 9.39258 8.34402C9.55339 8.73405 9.73771 9.18107 9.76956 9.24363C9.81561 9.33468 9.8457 9.44102 9.78491 9.56201C9.77554 9.58058 9.7669 9.59807 9.75865 9.61477C9.71286 9.70744 9.67927 9.77545 9.6007 9.86452C9.57011 9.90008 9.53855 9.93837 9.50702 9.97663C9.44426 10.0528 9.38161 10.1288 9.32685 10.1829C9.23597 10.2733 9.1408 10.3717 9.24702 10.5532C9.35325 10.7353 9.71982 11.33 10.262 11.8115C10.8443 12.3287 11.3507 12.5473 11.6079 12.6584C11.6586 12.6802 11.6995 12.6979 11.7295 12.7129C11.9119 12.804 12.0187 12.7887 12.125 12.6677C12.2312 12.5467 12.5812 12.1372 12.7028 11.9557C12.825 11.7736 12.9465 11.8042 13.1136 11.8647C13.2812 11.9252 14.1783 12.3646 14.3606 12.4556C14.3965 12.4735 14.43 12.4895 14.461 12.5044Z" fill="#939393"/>
</svg>
