<svg width="22" height="22" viewBox="0 0 22 22" fill="none" xmlns="http://www.w3.org/2000/svg">
<path fill-rule="evenodd" clip-rule="evenodd" d="M1.54648 1.54648C0 3.09296 0 5.58197 0 10.56V11.44C0 16.418 0 18.907 1.54648 20.4535C3.09296 22 5.58197 22 10.56 22H11.44C16.418 22 18.907 22 20.4535 20.4535C22 18.907 22 16.418 22 11.44V10.56C22 5.58197 22 3.09296 20.4535 1.54648C18.907 0 16.418 0 11.44 0H10.56C5.58197 0 3.09296 0 1.54648 1.54648ZM10.9224 10.9333C11.9276 10.9333 12.836 10.5216 13.49 9.86756C14.144 9.21356 14.5558 8.30522 14.5558 7.29999C14.5558 6.29476 14.144 5.38642 13.49 4.73241C12.836 4.07841 11.9276 3.66663 10.9224 3.66663C9.91718 3.66663 9.00885 4.07841 8.35485 4.73241C7.70084 5.38642 7.28906 6.29476 7.28906 7.29999C7.28906 8.30522 7.70084 9.21356 8.35485 9.86756C9.00885 10.5216 9.92929 10.9333 10.9224 10.9333ZM9.75974 6.1252C10.0625 5.82242 10.4743 5.64075 10.9224 5.64075C11.3826 5.64075 11.7944 5.82242 12.0851 6.1252C12.3879 6.42798 12.5695 6.83976 12.5695 7.28788C12.5695 7.7481 12.3879 8.15988 12.0851 8.45055C11.7823 8.75333 11.3705 8.935 10.9224 8.935C10.4622 8.935 10.0504 8.75333 9.75974 8.45055C9.45696 8.14777 9.27529 7.73599 9.27529 7.28788C9.27529 6.83976 9.46907 6.42798 9.75974 6.1252ZM15.8157 12.3988L14.75 10.9455C14.6894 10.8607 14.5683 10.8486 14.4956 10.9212C13.4904 11.7811 12.2551 12.3382 10.9228 12.3382C9.59059 12.3382 8.35524 11.7811 7.35001 10.9212C7.27735 10.8607 7.15623 10.8728 7.09568 10.9455L6.02989 12.3988C5.98145 12.4715 5.99356 12.5684 6.05412 12.6289C6.95034 13.3556 7.99191 13.8521 9.08192 14.1065L6.82923 18.079C6.76868 18.188 6.85345 18.3333 6.97457 18.3333H9.17881C9.25147 18.3333 9.31203 18.297 9.33625 18.2243L10.9107 14.712L12.4852 18.2243C12.5094 18.2848 12.5699 18.3333 12.6426 18.3333H14.8468C14.9801 18.3333 15.0527 18.2001 14.9922 18.079L12.7395 14.1065C13.8295 13.8521 14.8711 13.3677 15.7673 12.6289C15.8642 12.5684 15.8763 12.4715 15.8157 12.3988Z" fill="#939393"/>
</svg>
