<svg width="22" height="22" viewBox="0 0 22 22" fill="none" xmlns="http://www.w3.org/2000/svg">
<path fill-rule="evenodd" clip-rule="evenodd" d="M1.54648 1.54648C0 3.09296 0 5.58197 0 10.56V11.44C0 16.418 0 18.907 1.54648 20.4535C3.09296 22 5.58197 22 10.56 22H11.44C16.418 22 18.907 22 20.4535 20.4535C22 18.907 22 16.418 22 11.44V10.56C22 5.58197 22 3.09296 20.4535 1.54648C18.907 0 16.418 0 11.44 0H10.56C5.58197 0 3.09296 0 1.54648 1.54648ZM3.71289 6.69177C3.83206 12.4118 6.69204 15.8493 11.7062 15.8493H11.9904V12.5767C13.8329 12.7601 15.2262 14.1076 15.7853 15.8493H18.3887C17.6737 13.2459 15.7945 11.8068 14.6212 11.2568C15.7945 10.5784 17.4445 8.92845 17.8387 6.69177H15.4736C14.9602 8.50677 13.4388 10.1567 11.9904 10.3126V6.69177H9.62535V13.0351C8.1587 12.6684 6.30707 10.8901 6.22457 6.69177H3.71289Z" fill="#939393"/>
</svg>
