<svg width="22" height="22" viewBox="0 0 22 22" fill="none" xmlns="http://www.w3.org/2000/svg">
<path fill-rule="evenodd" clip-rule="evenodd" d="M1.54648 1.54648C0 3.09296 0 5.58197 0 10.56V11.44C0 16.418 0 18.907 1.54648 20.4535C3.09296 22 5.58197 22 10.56 22H11.44C16.418 22 18.907 22 20.4535 20.4535C22 18.907 22 16.418 22 11.44V10.56C22 5.58197 22 3.09296 20.4535 1.54648C18.907 0 16.418 0 11.44 0H10.56C5.58197 0 3.09296 0 1.54648 1.54648ZM17.6067 10.069C17.5767 9.69997 17.2678 9.40987 16.8911 9.40987C16.4946 9.40987 16.1731 9.73131 16.1731 10.1278V15.9742L16.171 16.0374C16.1385 16.5178 15.7386 16.8973 15.25 16.8973H7.24969L7.18649 16.8952C6.70615 16.8627 6.32658 16.4628 6.32658 15.9742V10.1278L6.3242 10.069C6.29425 9.69997 5.9853 9.40987 5.6086 9.40987C5.21207 9.40987 4.89062 9.73131 4.89062 10.1278V15.9742L4.89233 16.0647C4.93988 17.3257 5.97711 18.3333 7.24969 18.3333H15.25L15.3405 18.3316C16.6014 18.284 17.6091 17.2468 17.6091 15.9742V10.1278L17.6067 10.069ZM11.1053 3.66727L11.0443 3.67339C10.9589 3.68565 10.8784 3.71291 10.8058 3.75278L10.7981 3.75654C10.7815 3.7658 10.7653 3.77569 10.7498 3.78659L10.7033 3.81972C10.6773 3.84021 10.6528 3.86245 10.6298 3.88628L7.4494 7.06751L7.40283 7.11873C7.16999 7.40078 7.18551 7.81899 7.4494 8.08288L7.50062 8.12945C7.78267 8.3623 8.20088 8.34678 8.46478 8.08288L10.4293 6.11784V14.0254L10.4317 14.0843C10.4616 14.4533 10.7706 14.7434 11.1473 14.7434L11.2062 14.741C11.5751 14.7111 11.8653 14.4021 11.8653 14.0254V6.1162L13.8317 8.08288L13.883 8.12945C14.165 8.3623 14.5832 8.34678 14.8471 8.08288C15.1275 7.8025 15.1275 7.3479 14.8471 7.06751L11.6559 3.87634L11.6178 3.84095L11.5688 3.80196C11.4988 3.7513 11.4218 3.71481 11.3417 3.69269L11.3134 3.6852L11.2404 3.67196L11.177 3.66663L11.1053 3.66727Z" fill="#939393"/>
</svg>
