<svg width="15" height="20" viewBox="0 0 15 20" fill="none" xmlns="http://www.w3.org/2000/svg">
<path d="M7.38809 0C3.31421 0 0 3.31421 0 7.38809C0 8.72925 0.601478 10.1717 0.626684 10.2325C0.820947 10.6936 1.20426 11.4098 1.48066 11.8296L6.54628 19.505C6.75359 19.8196 7.06041 20 7.38809 20C7.71578 20 8.0226 19.8196 8.2299 19.5054L13.296 11.8296C13.5728 11.4098 13.9557 10.6936 14.1499 10.2325C14.1751 10.1721 14.7762 8.72968 14.7762 7.38809C14.7762 3.31421 11.462 0 7.38809 0ZM13.3485 9.89526C13.1751 10.3086 12.8183 10.9748 12.5702 11.3512L7.50413 19.0269C7.40417 19.1786 7.37245 19.1786 7.27249 19.0269L2.20643 11.3512C1.95828 10.9748 1.60148 10.3081 1.42807 9.89483C1.42069 9.87701 0.869187 8.54933 0.869187 7.38809C0.869187 3.79357 3.79357 0.869187 7.38809 0.869187C10.9826 0.869187 13.907 3.79357 13.907 7.38809C13.907 8.55106 13.3542 9.88223 13.3485 9.89526Z" fill="black"/>
<path d="M7.38809 3.47717C5.2312 3.47717 3.47675 5.23206 3.47675 7.38852C3.47675 9.54497 5.2312 11.2999 7.38809 11.2999C9.54498 11.2999 11.2994 9.54497 11.2994 7.38852C11.2994 5.23206 9.54498 3.47717 7.38809 3.47717ZM7.38809 10.4307C5.71099 10.4307 4.34593 9.06605 4.34593 7.38852C4.34593 5.71098 5.71099 4.34636 7.38809 4.34636C9.06519 4.34636 10.4302 5.71098 10.4302 7.38852C10.4302 9.06605 9.06519 10.4307 7.38809 10.4307Z" fill="black"/>
</svg>
