<svg width="20" height="12" viewBox="0 0 20 12" fill="none" xmlns="http://www.w3.org/2000/svg">
<path d="M18.2222 0H4.44444C3.46667 0 2.66667 0.796281 2.66667 1.76951V2.43308C2.66667 2.67639 2.86667 2.87546 3.11111 2.87546C3.35556 2.87546 3.55556 2.67639 3.55556 2.43308V1.76951C3.55556 1.68104 3.57778 1.59256 3.6 1.50409L8.57778 5.75092L3.6 9.99776C3.57778 9.90928 3.55556 9.8208 3.55556 9.73233V9.06876C3.55556 8.82545 3.35556 8.62638 3.11111 8.62638C2.86667 8.62638 2.66667 8.82545 2.66667 9.06876V9.73233C2.66667 10.7056 3.46667 11.5018 4.44444 11.5018H18.2222C19.2 11.5018 20 10.7056 20 9.73233V1.76951C20 0.796281 19.2 0 18.2222 0ZM4.26667 0.906876C4.31111 0.884757 4.37778 0.884757 4.44444 0.884757H18.2222C18.2889 0.884757 18.3556 0.884757 18.4 0.906876L11.6222 6.67992C11.4444 6.81263 11.2222 6.81263 11.0444 6.67992L4.26667 0.906876ZM18.2222 10.6171H4.44444C4.37778 10.6171 4.31111 10.6171 4.26667 10.595L9.26667 6.32601L10.4667 7.3656C10.7111 7.58679 11.0222 7.69739 11.3333 7.69739C11.6444 7.69739 11.9556 7.58679 12.2 7.3656L13.4 6.32601L18.4 10.595C18.3556 10.6171 18.2889 10.6171 18.2222 10.6171ZM19.1111 9.73233C19.1111 9.8208 19.0889 9.90928 19.0667 9.99776L14.0889 5.75092L19.0667 1.50409C19.0889 1.59256 19.1111 1.68104 19.1111 1.76951V9.73233ZM1.33333 4.64498C1.33333 4.40167 1.53333 4.2026 1.77778 4.2026H4.44444C4.68889 4.2026 4.88889 4.40167 4.88889 4.64498C4.88889 4.88828 4.68889 5.08735 4.44444 5.08735H1.77778C1.53333 5.08735 1.33333 4.88828 1.33333 4.64498ZM4.44444 7.29925H0.444444C0.2 7.29925 0 7.10018 0 6.85687C0 6.61356 0.2 6.41449 0.444444 6.41449H4.44444C4.68889 6.41449 4.88889 6.61356 4.88889 6.85687C4.88889 7.10018 4.68889 7.29925 4.44444 7.29925Z" fill="black"/>
</svg>
