<svg width="30" height="30" viewBox="0 0 30 30" fill="none" xmlns="http://www.w3.org/2000/svg">
<path fill-rule="evenodd" clip-rule="evenodd" d="M2.10883 2.10883C0 4.21767 0 7.61178 0 14.4V15.6C0 22.3882 0 25.7823 2.10883 27.8912C4.21767 30 7.61178 30 14.4 30H15.6C22.3882 30 25.7823 30 27.8912 27.8912C30 25.7823 30 22.3882 30 15.6V14.4C30 7.61178 30 4.21767 27.8912 2.10883C25.7823 0 22.3882 0 15.6 0H14.4C7.61178 0 4.21767 0 2.10883 2.10883ZM15.0352 15.4319C16.0633 15.4319 16.9923 15.0107 17.6611 14.3419C18.33 13.673 18.7511 12.744 18.7511 11.7159C18.7511 10.6879 18.33 9.75888 17.6611 9.09001C16.9923 8.42114 16.0633 8 15.0352 8C14.0071 8 13.0781 8.42114 12.4093 9.09001C11.7404 9.75888 11.3193 10.6879 11.3193 11.7159C11.3193 12.744 11.7404 13.673 12.4093 14.3419C13.0781 15.0107 14.0195 15.4319 15.0352 15.4319ZM13.8461 10.5145C14.1557 10.2048 14.5769 10.019 15.0352 10.019C15.5059 10.019 15.927 10.2048 16.2243 10.5145C16.534 10.8241 16.7198 11.2453 16.7198 11.7036C16.7198 12.1742 16.534 12.5954 16.2243 12.8927C15.9146 13.2023 15.4935 13.3881 15.0352 13.3881C14.5645 13.3881 14.1434 13.2023 13.8461 12.8927C13.5364 12.583 13.3506 12.1618 13.3506 11.7036C13.3506 11.2453 13.5488 10.8241 13.8461 10.5145ZM20.0386 16.9301L18.9486 15.4437C18.8867 15.357 18.7628 15.3446 18.6885 15.4189C17.6604 16.2984 16.397 16.8681 15.0345 16.8681C13.672 16.8681 12.4086 16.2984 11.3805 15.4189C11.3062 15.357 11.1823 15.3694 11.1204 15.4437L10.0304 16.9301C9.98082 17.0044 9.99321 17.1035 10.0551 17.1654C10.9717 17.9086 12.037 18.4164 13.1518 18.6766L10.8479 22.7393C10.7859 22.8508 10.8727 22.9994 10.9965 22.9994H13.2509C13.3252 22.9994 13.3871 22.9623 13.4119 22.888L15.0221 19.2959L16.6324 22.888C16.6571 22.9499 16.7191 22.9994 16.7934 22.9994H19.0477C19.184 22.9994 19.2583 22.8632 19.1964 22.7393L16.8925 18.6766C18.0073 18.4164 19.0725 17.921 19.9891 17.1654C20.0882 17.1035 20.1006 17.0044 20.0386 16.9301Z" fill="#006EB6"/>
</svg>
