<svg width="19" height="18" viewBox="0 0 19 18" fill="none" xmlns="http://www.w3.org/2000/svg">
<path fill-rule="evenodd" clip-rule="evenodd" d="M1.43541 1.2653C0.170898 2.5306 0.170898 4.56707 0.170898 8.64V9.36C0.170898 13.4329 0.170898 15.4694 1.43541 16.7347C2.69993 18 4.73514 18 8.80555 18H9.5251C13.5955 18 15.6307 18 16.8952 16.7347C18.1597 15.4694 18.1598 13.4329 18.1598 9.36V8.64C18.1598 4.56707 18.1597 2.5306 16.8952 1.2653C15.6307 0 13.5955 0 9.5251 0H8.80555C4.73514 0 2.69993 0 1.43541 1.2653ZM9.10385 8.9455C9.9258 8.9455 10.6685 8.60859 11.2033 8.07349C11.7381 7.5384 12.0748 6.79521 12.0748 5.97275C12.0748 5.15029 11.7381 4.4071 11.2033 3.87201C10.6685 3.33691 9.9258 3 9.10385 3C8.2819 3 7.53918 3.33691 7.00442 3.87201C6.46965 4.4071 6.13295 5.15029 6.13295 5.97275C6.13295 6.79521 6.46965 7.5384 7.00442 8.07349C7.53918 8.60859 8.2918 8.9455 9.10385 8.9455ZM8.15316 5.01156C8.40073 4.76383 8.73744 4.61519 9.10385 4.61519C9.48016 4.61519 9.81688 4.76383 10.0546 5.01156C10.3021 5.25929 10.4507 5.5962 10.4507 5.96284C10.4507 6.33939 10.3021 6.6763 10.0546 6.91412C9.80697 7.16185 9.47026 7.31049 9.10385 7.31049C8.72753 7.31049 8.39083 7.16185 8.15316 6.91412C7.90558 6.66639 7.75704 6.32948 7.75704 5.96284C7.75704 5.5962 7.91549 5.25929 8.15316 5.01156ZM13.1041 10.1445L12.2326 8.9554C12.1831 8.88604 12.0841 8.87613 12.0247 8.93559C11.2027 9.63914 10.1926 10.095 9.10328 10.095C8.01395 10.095 7.00384 9.63914 6.18189 8.93559C6.12247 8.88604 6.02344 8.89595 5.97392 8.9554L5.10246 10.1445C5.06284 10.204 5.07275 10.2832 5.12226 10.3328C5.85509 10.9273 6.70675 11.3336 7.59802 11.5417L5.75606 14.7919C5.70654 14.8811 5.77586 15 5.87489 15H7.67724C7.73666 15 7.78618 14.9703 7.80598 14.9108L9.09338 12.0372L10.3808 14.9108C10.4006 14.9604 10.4501 15 10.5095 15H12.3119C12.4208 15 12.4802 14.891 12.4307 14.7919L10.5887 11.5417C11.48 11.3336 12.3317 10.9372 13.0645 10.3328C13.1437 10.2832 13.1536 10.204 13.1041 10.1445Z" fill="white"/>
</svg>
