<svg width="19" height="20" viewBox="0 0 19 20" fill="none" xmlns="http://www.w3.org/2000/svg">
<path fill-rule="evenodd" clip-rule="evenodd" d="M4.43816 1.12795C4.20375 0.893607 3.88587 0.761963 3.55441 0.761963C3.22296 0.761963 2.90507 0.893607 2.67066 1.12795L1.09858 2.70003C0.65144 3.14709 0.324603 3.69995 0.148456 4.30722C-0.0276916 4.91448 -0.0474292 5.55643 0.0910779 6.17336L0.0923279 6.17878C0.558161 8.13461 1.76399 11.2988 4.9265 14.4613C8.08899 17.6238 11.254 18.8296 13.2107 19.2925L13.2152 19.2934C13.8316 19.4317 14.473 19.4121 15.0797 19.2361C15.6865 19.0602 16.2389 18.7338 16.6857 18.2871C17.2186 17.7584 17.8248 17.1521 18.2598 16.7171C18.3761 16.6012 18.4683 16.4634 18.5312 16.3118C18.5941 16.1601 18.6265 15.9975 18.6265 15.8334C18.6265 15.6692 18.5941 15.5066 18.5312 15.355C18.4683 15.2033 18.3761 15.0656 18.2598 14.9496L15.2715 11.9613C15.0371 11.7269 14.7192 11.5953 14.3877 11.5953C14.0563 11.5953 13.7384 11.7269 13.504 11.9613L12.0515 13.4134C11.9875 13.4775 11.9043 13.5189 11.8146 13.5315C11.7249 13.5441 11.6336 13.527 11.5544 13.4829C10.4279 12.7523 9.38146 11.9052 8.43233 10.9554C7.17983 9.70295 6.33941 8.5092 5.91191 7.84045C5.86556 7.76138 5.84671 7.66917 5.85832 7.57826C5.86993 7.48734 5.91134 7.40283 5.97608 7.33795L5.97733 7.3367C6.38358 6.9267 6.98316 6.32753 7.42649 5.88378C7.54273 5.76782 7.63494 5.63008 7.69786 5.47843C7.76078 5.32678 7.79317 5.16421 7.79317 5.00003C7.79317 4.83585 7.76078 4.67328 7.69786 4.52163C7.63494 4.36998 7.54273 4.23224 7.42649 4.11628L4.43816 1.12795ZM3.84899 1.71711L6.83733 4.70545C6.91524 4.78369 6.95898 4.88961 6.95898 5.00003C6.95898 5.11045 6.91524 5.21637 6.83733 5.29461C6.35237 5.77869 5.86848 6.26383 5.38566 6.75003C5.18818 6.94792 5.06294 7.20644 5.03007 7.48407C4.9972 7.76171 5.0586 8.04233 5.20441 8.28086C5.64941 8.97836 6.52899 10.2304 7.84316 11.5446C8.83465 12.5367 9.92775 13.4217 11.1044 14.185L11.1161 14.1921C11.3551 14.3348 11.6349 14.3937 11.9112 14.3593C12.1874 14.325 12.4443 14.1994 12.6411 14.0025L14.0932 12.5504C14.1714 12.4725 14.2773 12.4288 14.3877 12.4288C14.4982 12.4288 14.6041 12.4725 14.6823 12.5504L17.6707 15.5388C17.7486 15.617 17.7923 15.7229 17.7923 15.8334C17.7923 15.9438 17.7486 16.0497 17.6707 16.1279C17.2361 16.5621 16.6311 17.1675 16.0977 17.6967L16.0965 17.6979C15.7493 18.045 15.3201 18.2988 14.8487 18.4356C14.3772 18.5725 13.8789 18.5881 13.3998 18.4809C11.5357 18.0396 8.52691 16.8834 5.51566 13.8721C2.50441 10.8609 1.34816 7.85211 0.903578 5.98836C0.796333 5.50882 0.811982 5.00996 0.949071 4.53809C1.08616 4.06621 1.34025 3.63662 1.68774 3.2892L3.25983 1.71711C3.33807 1.6392 3.44399 1.59546 3.55441 1.59546C3.66483 1.59546 3.77075 1.6392 3.84899 1.71711ZM9.38774 2.9167C13.2973 2.9167 16.4711 6.09045 16.4711 10C16.4711 10.1105 16.515 10.2165 16.5931 10.2947C16.6713 10.3728 16.7772 10.4167 16.8877 10.4167C16.9983 10.4167 17.1042 10.3728 17.1824 10.2947C17.2605 10.2165 17.3044 10.1105 17.3044 10C17.3044 5.63086 13.7569 2.08336 9.38774 2.08336C9.27724 2.08336 9.17126 2.12726 9.09312 2.2054C9.01498 2.28354 8.97108 2.38952 8.97108 2.50003C8.97108 2.61054 9.01498 2.71652 9.09312 2.79466C9.17126 2.8728 9.27724 2.9167 9.38774 2.9167Z" fill="black"/>
<path fill-rule="evenodd" clip-rule="evenodd" d="M9.38737 5.41671C11.917 5.41671 13.9707 7.47046 13.9707 10C13.9707 10.1105 14.0146 10.2165 14.0927 10.2947C14.1709 10.3728 14.2769 10.4167 14.3874 10.4167C14.4979 10.4167 14.6039 10.3728 14.682 10.2947C14.7601 10.2165 14.804 10.1105 14.804 10C14.804 7.01046 12.377 4.58337 9.38737 4.58337C9.27686 4.58337 9.17088 4.62727 9.09274 4.70541C9.0146 4.78355 8.9707 4.88953 8.9707 5.00004C8.9707 5.11055 9.0146 5.21653 9.09274 5.29467C9.17088 5.37281 9.27686 5.41671 9.38737 5.41671Z" fill="black"/>
<path fill-rule="evenodd" clip-rule="evenodd" d="M9.38737 7.91671C10.5374 7.91671 11.4707 8.85004 11.4707 10C11.4707 10.1105 11.5146 10.2165 11.5927 10.2947C11.6709 10.3728 11.7769 10.4167 11.8874 10.4167C11.9979 10.4167 12.1039 10.3728 12.182 10.2947C12.2601 10.2165 12.304 10.1105 12.304 10C12.304 8.39046 10.997 7.08337 9.38737 7.08337C9.27686 7.08337 9.17088 7.12727 9.09274 7.20541C9.0146 7.28355 8.9707 7.38953 8.9707 7.50004C8.9707 7.61055 9.0146 7.71653 9.09274 7.79467C9.17088 7.87281 9.27686 7.91671 9.38737 7.91671Z" fill="black"/>
</svg>
