<svg width="17" height="16" viewBox="0 0 17 16" fill="none" xmlns="http://www.w3.org/2000/svg">
<path d="M6.93902 0H6.94121V0.000934898C8.82947 0.00146913 10.5393 0.748987 11.7766 1.95688C13.0119 3.16303 13.7771 4.83035 13.7783 6.67184H13.7793V6.67624V6.68158H13.7783C13.7776 7.42376 13.6528 8.13802 13.4233 8.80407C13.3849 8.91586 13.3447 9.02324 13.3033 9.12581V9.12674C13.1055 9.61556 12.8497 10.0777 12.5443 10.5033L16.5239 13.9944L16.5263 13.9965L16.5478 14.016L16.5493 14.0175C16.774 14.2262 16.8964 14.5057 16.9118 14.7894C16.9269 15.0699 16.8375 15.3568 16.641 15.5869L16.6395 15.589L16.6156 15.6161L16.6108 15.6208L16.5908 15.6422L16.5886 15.645C16.3745 15.8643 16.0886 15.9834 15.7977 15.9984C15.5107 16.0132 15.2165 15.9263 14.9806 15.7342L14.9785 15.7327L14.9506 15.7094L14.9467 15.7062L10.8763 12.1356C10.7559 12.2185 10.633 12.2971 10.5086 12.3714C10.3399 12.4722 10.1652 12.5672 9.98687 12.6538C9.07018 13.1002 8.03429 13.3513 6.93916 13.3513V13.3522H6.93697V13.3513C5.0487 13.3507 3.33861 12.6032 2.10129 11.3953C0.865624 10.1892 0.100822 8.5216 0.0995907 6.68065H0.0986328V6.67624V6.67411H0.0995907C0.100138 4.83115 0.866035 3.16209 2.10362 1.95447C3.33943 0.748987 5.04775 0.00213691 6.9345 0.000934898V0H6.93902ZM6.94121 1.49717V1.49811H6.93902H6.9345V1.49717C5.47223 1.49811 4.14679 2.07815 3.18726 3.01425C2.22787 3.95035 1.63303 5.24531 1.63262 6.67424H1.63357V6.67638V6.68078H1.63262C1.63357 8.10797 2.22746 9.40094 3.18699 10.3377C4.1461 11.2742 5.47291 11.8548 6.93683 11.855V11.8541H6.93902H6.94354V11.855C8.40581 11.8541 9.7307 11.2743 10.6905 10.338C11.6499 9.40187 12.2447 8.1073 12.245 6.67851H12.2442V6.67638V6.67197H12.245C12.2442 5.24478 11.6498 3.95115 10.6908 3.01465C9.73166 2.07815 8.40527 1.49757 6.94121 1.49717Z" fill="white"/>
</svg>
