<svg width="19" height="20" viewBox="0 0 19 20" fill="none" xmlns="http://www.w3.org/2000/svg">
<path fill-rule="evenodd" clip-rule="evenodd" d="M4.43816 1.1277C4.20375 0.893363 3.88587 0.761719 3.55441 0.761719C3.22296 0.761719 2.90507 0.893363 2.67066 1.1277L1.09858 2.69979C0.65144 3.14685 0.324603 3.69971 0.148456 4.30697C-0.0276916 4.91424 -0.0474292 5.55618 0.0910779 6.17312L0.0923279 6.17854C0.558161 8.13437 1.76399 11.2985 4.9265 14.461C8.08899 17.6235 11.254 18.8294 13.2107 19.2923L13.2152 19.2931C13.8316 19.4315 14.473 19.4118 15.0797 19.2359C15.6865 19.06 16.2389 18.7335 16.6857 18.2869C17.2186 17.7581 17.8248 17.1519 18.2598 16.7169C18.3761 16.6009 18.4683 16.4632 18.5312 16.3115C18.5941 16.1599 18.6265 15.9973 18.6265 15.8331C18.6265 15.6689 18.5941 15.5064 18.5312 15.3547C18.4683 15.2031 18.3761 15.0653 18.2598 14.9494L15.2715 11.961C15.0371 11.7267 14.7192 11.5951 14.3877 11.5951C14.0563 11.5951 13.7384 11.7267 13.504 11.961L12.0515 13.4131C11.9875 13.4772 11.9043 13.5187 11.8146 13.5313C11.7249 13.5438 11.6336 13.5268 11.5544 13.4827C10.4279 12.7521 9.38146 11.9049 8.43233 10.9552C7.17983 9.7027 6.33941 8.50895 5.91191 7.8402C5.86556 7.76113 5.84671 7.66893 5.85832 7.57801C5.86993 7.48709 5.91134 7.40259 5.97608 7.3377L5.97733 7.33645C6.38358 6.92645 6.98316 6.32729 7.42649 5.88354C7.54273 5.76758 7.63494 5.62983 7.69786 5.47818C7.76078 5.32654 7.79317 5.16397 7.79317 4.99979C7.79317 4.8356 7.76078 4.67303 7.69786 4.52139C7.63494 4.36974 7.54273 4.23199 7.42649 4.11603L4.43816 1.1277ZM3.84899 1.71687L6.83733 4.7052C6.91524 4.78345 6.95898 4.88937 6.95898 4.99979C6.95898 5.1102 6.91524 5.21612 6.83733 5.29437C6.35237 5.77844 5.86848 6.26358 5.38566 6.74979C5.18818 6.94767 5.06294 7.2062 5.03007 7.48383C4.9972 7.76146 5.0586 8.04208 5.20441 8.28062C5.64941 8.97812 6.52899 10.2302 7.84316 11.5444C8.83465 12.5364 9.92775 13.4214 11.1044 14.1848L11.1161 14.1919C11.3551 14.3346 11.6349 14.3934 11.9112 14.3591C12.1874 14.3248 12.4443 14.1992 12.6411 14.0023L14.0932 12.5502C14.1714 12.4723 14.2773 12.4286 14.3877 12.4286C14.4982 12.4286 14.6041 12.4723 14.6823 12.5502L17.6707 15.5385C17.7486 15.6168 17.7923 15.7227 17.7923 15.8331C17.7923 15.9435 17.7486 16.0495 17.6707 16.1277C17.2361 16.5619 16.6311 17.1673 16.0977 17.6965L16.0965 17.6977C15.7493 18.0448 15.3201 18.2985 14.8487 18.4354C14.3772 18.5723 13.8789 18.5878 13.3998 18.4806C11.5357 18.0394 8.52691 16.8831 5.51566 13.8719C2.50441 10.8606 1.34816 7.85187 0.903578 5.98812C0.796333 5.50858 0.811982 5.00972 0.949071 4.53784C1.08616 4.06597 1.34025 3.63638 1.68774 3.28895L3.25983 1.71687C3.33807 1.63896 3.44399 1.59522 3.55441 1.59522C3.66483 1.59522 3.77075 1.63896 3.84899 1.71687ZM9.38774 2.91645C13.2973 2.91645 16.4711 6.0902 16.4711 9.99979C16.4711 10.1103 16.515 10.2163 16.5931 10.2944C16.6713 10.3726 16.7772 10.4165 16.8877 10.4165C16.9983 10.4165 17.1042 10.3726 17.1824 10.2944C17.2605 10.2163 17.3044 10.1103 17.3044 9.99979C17.3044 5.63062 13.7569 2.08312 9.38774 2.08312C9.27724 2.08312 9.17126 2.12702 9.09312 2.20516C9.01498 2.2833 8.97108 2.38928 8.97108 2.49979C8.97108 2.61029 9.01498 2.71627 9.09312 2.79441C9.17126 2.87255 9.27724 2.91645 9.38774 2.91645Z" fill="#939393"/>
<path fill-rule="evenodd" clip-rule="evenodd" d="M9.38737 5.41634C11.917 5.41634 13.9707 7.47009 13.9707 9.99967C13.9707 10.1102 14.0146 10.2162 14.0927 10.2943C14.1709 10.3724 14.2769 10.4163 14.3874 10.4163C14.4979 10.4163 14.6039 10.3724 14.682 10.2943C14.7601 10.2162 14.804 10.1102 14.804 9.99967C14.804 7.01009 12.377 4.58301 9.38737 4.58301C9.27686 4.58301 9.17088 4.62691 9.09274 4.70505C9.0146 4.78319 8.9707 4.88917 8.9707 4.99967C8.9707 5.11018 9.0146 5.21616 9.09274 5.2943C9.17088 5.37244 9.27686 5.41634 9.38737 5.41634Z" fill="#939393"/>
<path fill-rule="evenodd" clip-rule="evenodd" d="M9.38737 7.91634C10.5374 7.91634 11.4707 8.84967 11.4707 9.99967C11.4707 10.1102 11.5146 10.2162 11.5927 10.2943C11.6709 10.3724 11.7769 10.4163 11.8874 10.4163C11.9979 10.4163 12.1039 10.3724 12.182 10.2943C12.2601 10.2162 12.304 10.1102 12.304 9.99967C12.304 8.39009 10.997 7.08301 9.38737 7.08301C9.27686 7.08301 9.17088 7.12691 9.09274 7.20505C9.0146 7.28319 8.9707 7.38917 8.9707 7.49967C8.9707 7.61018 9.0146 7.71616 9.09274 7.7943C9.17088 7.87244 9.27686 7.91634 9.38737 7.91634Z" fill="#939393"/>
</svg>
