<svg width="19" height="18" viewBox="0 0 19 18" fill="none" xmlns="http://www.w3.org/2000/svg">
<path fill-rule="evenodd" clip-rule="evenodd" d="M1.31041 1.2653C0.0458984 2.5306 0.0458984 4.56707 0.0458984 8.64V9.36C0.0458984 13.4329 0.0458984 15.4694 1.31041 16.7347C2.57493 18 4.61014 18 8.68055 18H9.4001C13.4705 18 15.5057 18 16.7702 16.7347C18.0347 15.4694 18.0348 13.4329 18.0348 9.36V8.64C18.0348 4.56707 18.0347 2.5306 16.7702 1.2653C15.5057 0 13.4705 0 9.4001 0H8.68055C4.61014 0 2.57493 0 1.31041 1.2653ZM9.34494 5.16636C8.26275 5.63496 6.10763 6.60085 2.87032 8.05447C2.35235 8.27443 2.07487 8.48482 2.04712 8.69522C2.00616 9.05097 2.43684 9.18916 3.01782 9.37557C3.09279 9.39963 3.17027 9.42448 3.24955 9.45072C3.82302 9.64198 4.58147 9.86194 4.9792 9.8715C5.33993 9.88107 5.73765 9.72805 6.18163 9.41246C9.2062 7.29897 10.7601 6.22788 10.8618 6.20876C10.9358 6.18963 11.0283 6.1705 11.0931 6.22788C11.1578 6.28526 11.1578 6.40002 11.1486 6.42871C11.1045 6.61882 9.30008 8.35076 8.47896 9.13892C8.26741 9.34198 8.12112 9.4824 8.08701 9.51766C8.00027 9.60999 7.91193 9.69741 7.82699 9.78147C7.29608 10.3069 6.89765 10.7012 7.84653 11.3442C8.27789 11.6387 8.62583 11.8841 8.96845 12.1258C9.38253 12.4179 9.78887 12.7046 10.3254 13.0656C10.4518 13.1515 10.5728 13.2405 10.6908 13.3273C11.1516 13.6662 11.5674 13.972 12.0828 13.9263C12.3788 13.8977 12.684 13.6108 12.8412 12.7501C13.2112 10.7226 13.9327 6.31395 14.0992 4.49692C14.1177 4.34391 14.0992 4.14308 14.0807 4.04745C14.0622 3.95182 14.0344 3.82749 13.9234 3.73186C13.7847 3.6171 13.5812 3.59797 13.4887 3.59797C13.0725 3.60754 12.425 3.83706 9.34494 5.16636Z" fill="white"/>
</svg>
