<svg width="30" height="30" viewBox="0 0 30 30" fill="none" xmlns="http://www.w3.org/2000/svg">
<path fill-rule="evenodd" clip-rule="evenodd" d="M2.10883 2.10883C0 4.21767 0 7.61178 0 14.4V15.6C0 22.3882 0 25.7823 2.10883 27.8912C4.21767 30 7.61178 30 14.4 30H15.6C22.3882 30 25.7823 30 27.8912 27.8912C30 25.7823 30 22.3882 30 15.6V14.4C30 7.61178 30 4.21767 27.8912 2.10883C25.7823 0 22.3882 0 15.6 0H14.4C7.61178 0 4.21767 0 2.10883 2.10883ZM16.4835 10.8214C15.2259 11.3656 12.7215 12.4874 8.95957 14.1755C8.35767 14.4309 8.03521 14.6753 8.00297 14.9196C7.95537 15.3328 8.45584 15.4932 9.13098 15.7097C9.2181 15.7377 9.30813 15.7665 9.40026 15.797C10.0667 16.0191 10.948 16.2746 11.4102 16.2857C11.8294 16.2968 12.2916 16.1191 12.8075 15.7526C16.3222 13.2981 18.128 12.0542 18.2462 12.032C18.3322 12.0098 18.4397 11.9876 18.5149 12.0542C18.5901 12.1208 18.5901 12.2541 18.5794 12.2874C18.5281 12.5082 16.4313 14.5196 15.4771 15.4349C15.2313 15.6707 15.0613 15.8338 15.0217 15.8748C14.9209 15.982 14.8182 16.0835 14.7195 16.1811C14.1026 16.7913 13.6396 17.2492 14.7422 17.996C15.2435 18.338 15.6478 18.623 16.0459 18.9037C16.5271 19.2429 16.9993 19.5758 17.6228 19.9952C17.7697 20.0948 17.9103 20.1982 18.0475 20.299C18.5829 20.6926 19.066 21.0478 19.665 20.9947C20.0089 20.9614 20.3636 20.6282 20.5463 19.6287C20.9763 17.2741 21.8147 12.1542 22.0081 10.044C22.0296 9.86628 22.0081 9.63305 21.9866 9.52199C21.9651 9.41093 21.9329 9.26655 21.8039 9.15549C21.6427 9.02221 21.4062 9 21.2987 9C20.8151 9.0111 20.0627 9.27765 16.4835 10.8214Z" fill="#006EB6"/>
</svg>
