<svg width="30" height="30" viewBox="0 0 30 30" fill="none" xmlns="http://www.w3.org/2000/svg">
<path fill-rule="evenodd" clip-rule="evenodd" d="M2.10883 2.10883C0 4.21767 0 7.61178 0 14.4V15.6C0 22.3882 0 25.7823 2.10883 27.8912C4.21767 30 7.61178 30 14.4 30H15.6C22.3882 30 25.7823 30 27.8912 27.8912C30 25.7823 30 22.3882 30 15.6V14.4C30 7.61178 30 4.21767 27.8912 2.10883C25.7823 0 22.3882 0 15.6 0H14.4C7.61178 0 4.21767 0 2.10883 2.10883ZM7.06201 10.124C7.17914 15.7456 9.98992 19.124 14.9179 19.124H15.1972V15.9078C17.008 16.088 18.3773 17.4123 18.9268 19.124H21.4855C20.7827 16.5655 18.9358 15.151 17.7827 14.6105C18.9358 13.9438 20.5574 12.3222 20.9448 10.124H18.6204C18.1159 11.9078 16.6206 13.5294 15.1972 13.6826V10.124H12.8728V16.3583C11.4314 15.9979 9.61157 14.2501 9.53049 10.124H7.06201Z" fill="#006EB6"/>
</svg>
