<svg width="19" height="18" viewBox="0 0 19 18" fill="none" xmlns="http://www.w3.org/2000/svg">
<path fill-rule="evenodd" clip-rule="evenodd" d="M1.47155 1.2653C0.207031 2.5306 0.207031 4.56707 0.207031 8.64V9.36C0.207031 13.4329 0.207031 15.4694 1.47155 16.7347C2.73607 18 4.77127 18 8.84168 18H9.56124C13.6316 18 15.6669 18 16.9314 16.7347C18.1959 15.4694 18.1959 13.4329 18.1959 9.36V8.64C18.1959 4.56707 18.1959 2.5306 16.9314 1.2653C15.6669 0 13.6316 0 9.56124 0H8.84168C4.77127 0 2.73607 0 1.47155 1.2653ZM3.24226 5.47507C3.33971 10.1551 5.67824 12.9676 9.7782 12.9676H10.0106V10.29C11.5172 10.4401 12.6564 11.5426 13.1136 12.9676H15.2423C14.6577 10.8376 13.1211 9.66005 12.1617 9.21005C13.1211 8.65506 14.4702 7.30507 14.7925 5.47507H12.8587C12.4389 6.96007 11.1949 8.31005 10.0106 8.43754V5.47507H8.07673V10.6651C6.87748 10.3651 5.36345 8.91006 5.29599 5.47507H3.24226Z" fill="white"/>
</svg>
