<svg width="20" height="20" viewBox="0 0 20 20" fill="none" xmlns="http://www.w3.org/2000/svg">
<path d="M10 0C4.47216 0 0 4.48716 0 10C0 15.5001 4.456 20 10 20C15.526 20 20 15.5142 20 10C20 4.49072 15.5305 0 10 0ZM17.0615 15.8964C16.2788 15.4942 15.3917 15.1799 14.5297 14.9561C14.9336 13.5778 15.1632 12.0227 15.1956 10.4H19.1913C19.104 12.418 18.3574 14.346 17.0615 15.8964ZM2.93848 15.8964C1.64256 14.346 0.89604 12.418 0.80868 10.4H4.80432C4.8368 12.0227 5.06636 13.5778 5.47028 14.9561C4.60744 15.1804 3.73528 15.4885 2.93848 15.8964ZM2.93848 4.10352C3.734 4.51108 4.60872 4.8196 5.47028 5.04388C5.06636 6.42216 4.8368 7.97728 4.80432 9.6H0.80868C0.89604 7.58196 1.64256 5.65396 2.93848 4.10352ZM14.2825 4.2828C13.8774 3.15368 13.2747 1.97448 12.4313 1.12844C13.9578 1.54772 15.3638 2.35692 16.4993 3.48952C15.8052 3.82448 15.0092 4.10112 14.2825 4.2828ZM10.4 4.79536V0.83948C11.3768 1.03088 12.3008 1.91956 13.0363 3.39068C13.2046 3.72716 13.3582 4.08532 13.4969 4.4618C12.4774 4.6664 11.4314 4.77352 10.4 4.79536ZM9.6 4.79536C8.5598 4.77336 7.51104 4.66448 6.50308 4.4618C6.64176 4.08528 6.79544 3.72712 6.96364 3.39068C7.6992 1.91956 8.6232 1.03084 9.6 0.83948V4.79536ZM9.6 5.59552V9.6H5.60444C5.63688 8.03476 5.8594 6.54068 6.24988 5.2256C7.286 5.44004 8.41972 5.57152 9.6 5.59552ZM9.6 10.4V14.4045C8.48524 14.4272 7.33724 14.5484 6.24992 14.7744C5.8594 13.4593 5.63688 11.9652 5.60444 10.4H9.6ZM9.6 15.2046V19.1605C8.6232 18.9691 7.6992 18.0804 6.96364 16.6093C6.7954 16.2728 6.64176 15.9147 6.50308 15.5382C7.4722 15.3426 8.5268 15.2274 9.6 15.2046ZM10.4 15.2046C11.4707 15.2273 12.521 15.3416 13.4969 15.5382C13.3582 15.9147 13.2046 16.2728 13.0363 16.6093C12.3008 18.0804 11.3768 18.9691 10.4 19.1605V15.2046ZM10.4 14.4045V10.4H14.3956C14.3631 11.9652 14.1406 13.4593 13.7501 14.7744C12.7201 14.5605 11.5787 14.4285 10.4 14.4045ZM10.4 9.6V5.59552C11.5936 5.57124 12.7229 5.43788 13.7501 5.2256C14.1406 6.54064 14.3631 8.03476 14.3956 9.6H10.4ZM5.71752 4.2828C4.96752 4.0934 4.19508 3.82516 3.50068 3.48952C4.63616 2.35692 6.04224 1.54772 7.56872 1.12844C6.72408 1.97572 6.12156 3.15644 5.71752 4.2828ZM5.71752 15.7172C6.1214 16.8433 6.724 18.0242 7.56872 18.8716C6.04224 18.4523 4.63616 17.643 3.50068 16.5105C4.19612 16.1742 4.96892 15.9072 5.71752 15.7172ZM14.2824 15.7172C14.9992 15.8964 15.8056 16.1748 16.4993 16.5105C15.3638 17.643 13.9578 18.4523 12.4313 18.8716C13.276 18.0242 13.8786 16.8432 14.2824 15.7172ZM15.1957 9.6C15.1632 7.97728 14.9336 6.42216 14.5297 5.04388C15.4062 4.81628 16.2839 4.50232 17.0615 4.10356C18.3574 5.65396 19.104 7.582 19.1913 9.60004H15.1957V9.6Z" fill="black"/>
</svg>
