<svg width="32" height="28" viewBox="0 0 32 28" fill="none" xmlns="http://www.w3.org/2000/svg">
<path d="M7.57228 16.3861C7.68203 16.386 7.7897 16.3569 7.88385 16.3019C7.97801 16.2469 8.05513 16.168 8.10701 16.0736C8.1589 15.9792 8.18361 15.8728 8.17852 15.7658C8.17344 15.6588 8.13875 15.5552 8.07813 15.4659C7.58788 14.7412 7.26671 13.9203 7.13734 13.0612C7.00797 12.2021 7.07355 11.3257 7.32945 10.4941C7.58535 9.66239 8.02532 8.89575 8.61824 8.24833C9.21117 7.60091 9.94258 7.08853 10.7608 6.74741C11.5789 6.40628 12.4639 6.24475 13.3531 6.27423C14.2423 6.3037 15.114 6.52347 15.9066 6.91799C16.6992 7.31252 17.3933 7.87216 17.9398 8.55735C18.4864 9.24254 18.872 10.0366 19.0695 10.8832C19.105 11.0366 19.2016 11.1699 19.3378 11.2538C19.474 11.3377 19.6388 11.3654 19.796 11.3307C19.9531 11.296 20.0897 11.2018 20.1757 11.0689C20.2617 10.9359 20.29 10.775 20.2545 10.6217C20.0177 9.60541 19.5551 8.65231 18.8994 7.82979C18.2436 7.00727 17.4107 6.33542 16.4595 5.86176C15.5083 5.3881 14.4621 5.1242 13.3949 5.08873C12.3277 5.05326 11.2656 5.24707 10.2836 5.65647C9.30159 6.06587 8.42376 6.68085 7.71217 7.45792C7.00058 8.23499 6.47261 9.15517 6.16561 10.1534C5.85861 11.1516 5.78008 12.2034 5.93556 13.2345C6.09104 14.2656 6.47675 15.2508 7.06539 16.1203C7.12073 16.2021 7.19602 16.2692 7.28449 16.3156C7.37296 16.362 7.47184 16.3862 7.57228 16.3861ZM13.1457 3.41664C13.3068 3.41664 13.4613 3.35418 13.5752 3.243C13.6891 3.13182 13.7531 2.98103 13.7531 2.8238V0.592837C13.7531 0.435607 13.6891 0.284817 13.5752 0.173638C13.4613 0.0624595 13.3068 0 13.1457 0C12.9846 0 12.8301 0.0624595 12.7162 0.173638C12.6023 0.284817 12.5383 0.435607 12.5383 0.592837V2.8238C12.5383 2.98103 12.6023 3.13182 12.7162 3.243C12.8301 3.35418 12.9846 3.41664 13.1457 3.41664ZM7.81767 4.37603C7.89822 4.5122 8.03089 4.61156 8.1865 4.65226C8.34211 4.69295 8.50791 4.67165 8.64743 4.59304C8.78695 4.51442 8.88875 4.38493 8.93045 4.23306C8.97215 4.08118 8.95032 3.91936 8.86977 3.78319L7.7268 1.85113C7.64568 1.71608 7.51312 1.61783 7.35805 1.57781C7.20298 1.5378 7.03799 1.55927 6.89908 1.63755C6.76018 1.71583 6.65863 1.84455 6.6166 1.99563C6.57458 2.14671 6.59549 2.30788 6.67476 2.44397L7.81767 4.37603ZM2.54515 6.90851L4.52464 8.02429C4.59375 8.06383 4.67019 8.08964 4.74955 8.10023C4.82892 8.11082 4.90965 8.10599 4.98709 8.086C5.06454 8.06602 5.13717 8.03128 5.2008 7.98379C5.26444 7.9363 5.31782 7.87699 5.35787 7.80928C5.39792 7.74157 5.42386 7.6668 5.43419 7.58927C5.44451 7.51174 5.43902 7.43298 5.41803 7.35753C5.39704 7.28208 5.36097 7.21142 5.31189 7.14963C5.26281 7.08784 5.20169 7.03614 5.13206 6.9975L3.15256 5.88172C3.08345 5.84218 3.00702 5.81637 2.92765 5.80577C2.84828 5.79518 2.76755 5.80002 2.69011 5.82C2.61266 5.83999 2.54003 5.87472 2.4764 5.92222C2.41277 5.96971 2.35938 6.02901 2.31933 6.09672C2.27928 6.16443 2.25334 6.2392 2.24302 6.31673C2.23269 6.39426 2.23818 6.47302 2.25917 6.54848C2.28016 6.62393 2.31623 6.69458 2.36531 6.75637C2.41439 6.81816 2.47551 6.86987 2.54515 6.90851ZM4.14908 12.1974C4.14908 12.0402 4.08508 11.8894 3.97117 11.7782C3.85726 11.667 3.70276 11.6046 3.54167 11.6046H1.25585C1.09475 11.6046 0.940257 11.667 0.826345 11.7782C0.712433 11.8894 0.648438 12.0402 0.648438 12.1974C0.648438 12.3546 0.712433 12.5054 0.826345 12.6166C0.940257 12.7278 1.09475 12.7902 1.25585 12.7902H3.54167C3.70276 12.7902 3.85726 12.7278 3.97117 12.6166C4.08508 12.5054 4.14908 12.3546 4.14908 12.1974ZM5.35443 16.5878C5.31455 16.5203 5.26144 16.4612 5.19816 16.4138C5.13487 16.3664 5.06264 16.3317 4.98558 16.3115C4.90853 16.2914 4.82816 16.2862 4.74907 16.2964C4.66999 16.3066 4.59372 16.3319 4.52464 16.3708L2.54515 17.4863C2.47551 17.5249 2.41439 17.5766 2.36531 17.6384C2.31623 17.7002 2.28016 17.7709 2.25917 17.8463C2.23818 17.9218 2.23269 18.0005 2.24302 18.078C2.25334 18.1556 2.27928 18.2303 2.31933 18.2981C2.35938 18.3658 2.41277 18.4251 2.4764 18.4726C2.54003 18.5201 2.61266 18.5548 2.69011 18.5748C2.76755 18.5948 2.84828 18.5996 2.92765 18.589C3.00702 18.5784 3.08345 18.5526 3.15256 18.5131L5.13206 17.3976C5.20115 17.3587 5.2617 17.3069 5.31027 17.2451C5.35884 17.1834 5.39446 17.1129 5.41511 17.0377C5.43576 16.9625 5.44103 16.884 5.43062 16.8068C5.42021 16.7296 5.39432 16.6552 5.35443 16.5878ZM21.4637 8.10349C21.5702 8.1035 21.6747 8.07607 21.7668 8.02399L23.7464 6.90851C23.816 6.86987 23.8772 6.81816 23.9262 6.75637C23.9753 6.69458 24.0114 6.62393 24.0324 6.54848C24.0534 6.47302 24.0589 6.39426 24.0485 6.31673C24.0382 6.2392 24.0123 6.16443 23.9722 6.09672C23.9322 6.02901 23.8788 5.96971 23.8152 5.92222C23.7515 5.87472 23.6789 5.83999 23.6014 5.82C23.524 5.80002 23.4433 5.79518 23.3639 5.80577C23.2845 5.81637 23.2081 5.84218 23.139 5.88172L21.1594 6.9972C21.0436 7.06247 20.953 7.16324 20.9018 7.28388C20.8507 7.40452 20.8417 7.53827 20.8764 7.66437C20.9111 7.79048 20.9875 7.90188 21.0937 7.98128C21.1999 8.06068 21.33 8.10364 21.4637 8.10349ZM17.6439 4.59301C17.7834 4.67162 17.9492 4.69292 18.1048 4.65223C18.2604 4.61154 18.393 4.51219 18.4736 4.37603L19.6164 2.44397C19.6957 2.30788 19.7166 2.14671 19.6746 1.99563C19.6326 1.84455 19.531 1.71583 19.3921 1.63755C19.2532 1.55927 19.0882 1.5378 18.9331 1.57781C18.7781 1.61783 18.6455 1.71608 18.5644 1.85113L17.4215 3.78319C17.341 3.91935 17.3192 4.08117 17.3609 4.23304C17.4026 4.3849 17.5043 4.51439 17.6439 4.59301ZM28.0665 18.4382C28.3479 17.1334 28.1489 15.7735 27.5044 14.5977C26.8599 13.422 25.8113 12.5057 24.543 12.01C23.2746 11.5143 21.8678 11.4711 20.57 11.8878C19.2722 12.3045 18.1666 13.1546 17.4475 14.2884C16.3314 13.853 15.0849 13.8619 13.9754 14.3132C12.8659 14.7646 11.9819 15.6224 11.5131 16.7027C10.7173 16.5685 9.90166 16.5972 9.11783 16.7869C8.334 16.9766 7.5991 17.3232 6.9597 17.8046C6.32031 18.2861 5.79038 18.892 5.40349 19.5838C5.01661 20.2757 4.78121 21.0384 4.71222 21.8237C4.64323 22.609 4.74216 23.3998 5.00273 24.1458C5.2633 24.8918 5.67983 25.5769 6.22591 26.1576C6.772 26.7382 7.43573 27.2018 8.17503 27.519C8.91434 27.8362 9.71309 28 10.5207 28H26.7629C27.971 27.9998 29.1379 27.5714 30.0467 26.7944C30.9555 26.0175 31.5443 24.9449 31.7036 23.7761C31.863 22.6073 31.582 21.4218 30.913 20.4399C30.244 19.4581 29.2325 18.7468 28.0665 18.4382ZM26.7626 26.8145H10.5204C9.86247 26.814 9.21223 26.6762 8.61331 26.4104C8.01439 26.1445 7.48064 25.7567 7.04786 25.2731C6.61507 24.7894 6.29325 24.221 6.10398 23.606C5.91471 22.9909 5.86237 22.3435 5.95047 21.7071C6.03857 21.0708 6.26506 20.4601 6.61477 19.9162C6.96448 19.3722 7.42931 18.9076 7.97809 18.5533C8.52688 18.1991 9.14693 17.9635 9.79666 17.8623C10.4464 17.7611 11.1108 17.7966 11.7453 17.9666C11.8999 18.0081 12.0651 17.9881 12.2048 17.9112C12.3445 17.8342 12.4473 17.7064 12.4908 17.5557C12.6298 17.0751 12.8789 16.6315 13.2192 16.2585C13.5595 15.8855 13.9822 15.5928 14.4554 15.4026C14.9285 15.2123 15.4398 15.1294 15.9505 15.1602C16.4613 15.191 16.9582 15.3346 17.4038 15.5802C17.4761 15.6201 17.556 15.6451 17.6386 15.6537C17.7212 15.6623 17.8047 15.6543 17.8839 15.6301C17.9632 15.6059 18.0366 15.5662 18.0995 15.5132C18.1624 15.4603 18.2135 15.3954 18.2497 15.3224C18.7587 14.2966 19.6489 13.4986 20.7394 13.0907C21.8299 12.6829 23.0386 12.6958 24.1196 13.1269C25.2006 13.558 26.0727 14.3749 26.5585 15.4114C27.0443 16.4479 27.1072 17.6261 26.7345 18.7062C26.7057 18.7895 26.6962 18.878 26.7067 18.9653C26.7173 19.0527 26.7476 19.1366 26.7955 19.2111C26.8433 19.2856 26.9076 19.3487 26.9836 19.3959C27.0595 19.4432 27.1453 19.4734 27.2347 19.4842C28.1863 19.6013 29.0563 20.0678 29.6678 20.789C30.2793 21.5101 30.5861 22.4316 30.526 23.3658C30.4658 24.3 30.0431 25.1767 29.3439 25.8174C28.6448 26.4581 27.7217 26.8147 26.7626 26.8145Z" fill="white"/>
</svg>
