<svg width="30" height="30" viewBox="0 0 30 30" fill="none" xmlns="http://www.w3.org/2000/svg">
<path fill-rule="evenodd" clip-rule="evenodd" d="M2.10883 2.10883C0 4.21767 0 7.61178 0 14.4V15.6C0 22.3882 0 25.7823 2.10883 27.8912C4.21767 30 7.61178 30 14.4 30H15.6C22.3882 30 25.7823 30 27.8912 27.8912C30 25.7823 30 22.3882 30 15.6V14.4C30 7.61178 30 4.21767 27.8912 2.10883C25.7823 0 22.3882 0 15.6 0H14.4C7.61178 0 4.21767 0 2.10883 2.10883ZM10 9.33301V21.333C10.8118 20.9268 11.6139 20.5269 12.4029 20.1335C15.8558 18.4119 19.0591 16.8146 21.7434 15.3617C20.6203 14.7753 19.546 14.2008 18.485 13.6334C15.7685 12.1808 13.1387 10.7745 10 9.33301Z" fill="#006EB6"/>
</svg>
