<svg width="18" height="18" viewBox="0 0 18 18" fill="none" xmlns="http://www.w3.org/2000/svg">
<path fill-rule="evenodd" clip-rule="evenodd" d="M1.27721 1.2653C0.0126953 2.5306 0.0126953 4.56707 0.0126953 8.64V9.36C0.0126953 13.4329 0.0126953 15.4694 1.27721 16.7347C2.54173 18 4.57694 18 8.64735 18H9.3669C13.4373 18 15.4725 18 16.737 16.7347C18.0016 15.4694 18.0016 13.4329 18.0016 9.36V8.64C18.0016 4.56707 18.0016 2.5306 16.737 1.2653C15.4725 0 13.4373 0 9.3669 0H8.64735C4.57694 0 2.54173 0 1.27721 1.2653ZM6.00899 5V13C6.54987 12.7292 7.0842 12.4626 7.60986 12.2004C9.91041 11.0526 12.0447 9.98775 13.8331 9.01914C13.0848 8.62819 12.3691 8.2452 11.6621 7.86693C9.85227 6.89851 8.10019 5.96099 6.00899 5Z" fill="white"/>
</svg>
