<svg width="70" height="70" viewBox="0 0 70 70" fill="none" xmlns="http://www.w3.org/2000/svg">
<path d="M0 33.6C0 17.7608 0 9.84123 4.92061 4.92061C9.84123 0 17.7608 0 33.6 0H36.4C52.2392 0 60.1588 0 65.0794 4.92061C70 9.84123 70 17.7608 70 33.6V36.4C70 52.2392 70 60.1588 65.0794 65.0794C60.1588 70 52.2392 70 36.4 70H33.6C17.7608 70 9.84123 70 4.92061 65.0794C0 60.1588 0 52.2392 0 36.4V33.6Z" fill="#FF7700"/>
<path fill-rule="evenodd" clip-rule="evenodd" d="M42.0772 31.9111C40.2186 33.6947 37.6372 34.8177 34.7805 34.8177C31.9582 34.8177 29.3425 33.6947 27.4839 31.9111C25.6253 30.1275 24.4551 27.6503 24.4551 24.9088C24.4551 22.1674 25.6253 19.6902 27.4839 17.9066C29.3425 16.123 31.9238 15 34.7805 15C37.6372 15 40.2186 16.123 42.0772 17.9066C43.9358 19.6902 45.106 22.1674 45.106 24.9088C45.106 27.6503 43.9358 30.1275 42.0772 31.9111ZM34.7805 20.3838C33.507 20.3838 32.3368 20.8792 31.4763 21.705C30.6503 22.5307 30.0996 23.6537 30.0996 24.8758C30.0996 26.0979 30.6159 27.2209 31.4763 28.0466C32.3024 28.8724 33.4726 29.3678 34.7805 29.3678C36.054 29.3678 37.2242 28.8724 38.0847 28.0466C38.9451 27.2539 39.4614 26.1309 39.4614 24.8758C39.4614 23.6537 38.9451 22.5307 38.0847 21.705C37.2586 20.8792 36.0884 20.3838 34.7805 20.3838ZM45.659 34.8524L48.6878 38.816C48.8599 39.0141 48.8255 39.2784 48.5501 39.4435C46.0032 41.4583 43.0432 42.7795 39.9456 43.4731L46.3473 54.3068C46.5194 54.6371 46.3129 55.0004 45.9343 55.0004H39.6702C39.4637 55.0004 39.2916 54.8683 39.2228 54.7031L34.7484 45.1246L30.2741 54.7031C30.2052 54.9013 30.0331 55.0004 29.8266 55.0004H23.5625C23.2184 55.0004 22.9774 54.604 23.1495 54.3068L29.5513 43.4731C26.4537 42.7795 23.4937 41.4253 20.9468 39.4435C20.7747 39.2784 20.7402 39.0141 20.8779 38.816L23.9067 34.8524C24.0788 34.6543 24.423 34.6212 24.6295 34.7864C27.4862 37.1315 30.9969 38.6508 34.7829 38.6508C38.5688 38.6508 42.0795 37.1315 44.9362 34.7864C45.1427 34.5882 45.4869 34.6212 45.659 34.8524Z" fill="white"/>
</svg>
