<svg width="70" height="70" viewBox="0 0 70 70" fill="none" xmlns="http://www.w3.org/2000/svg">
<path d="M0 33.6C0 17.7608 0 9.84123 4.92061 4.92061C9.84123 0 17.7608 0 33.6 0H36.4C52.2392 0 60.1588 0 65.0794 4.92061C70 9.84123 70 17.7608 70 33.6V36.4C70 52.2392 70 60.1588 65.0794 65.0794C60.1588 70 52.2392 70 36.4 70H33.6C17.7608 70 9.84123 70 4.92061 65.0794C0 60.1588 0 52.2392 0 36.4V33.6Z" fill="#2AABEE"/>
<path fill-rule="evenodd" clip-rule="evenodd" d="M16.8124 33.9397C26.2173 29.7194 32.4782 26.915 35.6221 25.5545C44.5702 21.6951 46.4511 21.0287 47.6603 21.001C47.929 21.001 48.5202 21.0565 48.9233 21.3897C49.2457 21.6674 49.3263 22.0283 49.3801 22.306C49.4338 22.5836 49.4876 23.1667 49.4338 23.6109C48.9501 28.8864 46.8542 41.6863 45.7794 47.5726C45.3226 50.0715 44.4358 50.9045 43.5759 50.9878C41.695 51.1544 40.2708 49.7106 38.4705 48.4889C35.6221 46.5731 34.0367 45.3791 31.269 43.4911C28.0714 41.3254 30.1404 40.1315 31.9677 38.1879C32.4514 37.6881 40.7008 29.9137 40.862 29.2196C40.8888 29.1363 40.8888 28.8031 40.7007 28.6365C40.5127 28.4699 40.2439 28.5254 40.029 28.581C39.7334 28.6365 35.2191 31.7463 26.4322 37.8824C25.1424 38.7987 23.987 39.243 22.939 39.2152C21.7836 39.1874 19.5801 38.5488 17.9141 37.9935C15.8988 37.3271 14.2866 36.9662 14.4209 35.8C14.5015 35.1892 15.3077 34.5783 16.8124 33.9397Z" fill="white"/>
</svg>
