<svg width="70" height="70" viewBox="0 0 70 70" fill="none" xmlns="http://www.w3.org/2000/svg">
<path d="M0 33.6C0 17.7608 0 9.84123 4.92061 4.92061C9.84123 0 17.7608 0 33.6 0H36.4C52.2392 0 60.1588 0 65.0794 4.92061C70 9.84123 70 17.7608 70 33.6V36.4C70 52.2392 70 60.1588 65.0794 65.0794C60.1588 70 52.2392 70 36.4 70H33.6C17.7608 70 9.84123 70 4.92061 65.0794C0 60.1588 0 52.2392 0 36.4V33.6Z" fill="#0077FF"/>
<path d="M36.9489 47C23.8078 47 16.3123 37.991 16 23H22.5826C22.7988 34.003 27.6516 38.6636 31.4954 39.6246V23H37.6938V32.4894C41.4896 32.081 45.4771 27.7568 46.8225 23H53.0208C51.9878 28.8619 47.6635 33.1861 44.5884 34.9639C47.6635 36.4053 52.5886 40.1771 54.4625 47H47.6395C46.174 42.4354 42.5226 38.9039 37.6938 38.4234V47H36.9489Z" fill="white"/>
</svg>
