<svg width="70" height="70" viewBox="0 0 70 70" fill="none" xmlns="http://www.w3.org/2000/svg">
<path d="M0 33.6C0 17.7608 0 9.84123 4.92061 4.92061C9.84123 0 17.7608 0 33.6 0H36.4C52.2392 0 60.1588 0 65.0794 4.92061C70 9.84123 70 17.7608 70 33.6V36.4C70 52.2392 70 60.1588 65.0794 65.0794C60.1588 70 52.2392 70 36.4 70H33.6C17.7608 70 9.84123 70 4.92061 65.0794C0 60.1588 0 52.2392 0 36.4V33.6Z" fill="#00E2B8"/>
<path d="M36.2529 38.142H32.9309C32.3034 38.1419 31.7013 38.3895 31.2558 38.8307C30.8104 39.2719 30.5576 39.871 30.5526 40.4975V51.4083H38.6311V40.4975C38.6261 39.871 38.3734 39.2719 37.9279 38.8307C37.4824 38.3895 36.8804 38.1419 36.2529 38.142ZM47.4835 16L34.5919 28.8141L21.7191 16L16 21.7098L25.211 30.8681C27.705 33.3479 31.0814 34.7402 34.6013 34.7402C38.1212 34.7402 41.4977 33.3479 43.9916 30.8681L53.1838 21.7098L47.4835 16Z" fill="white"/>
</svg>
