<svg width="70" height="70" viewBox="0 0 70 70" fill="none" xmlns="http://www.w3.org/2000/svg">
<path d="M0 33.6C0 17.7608 0 9.84123 4.92061 4.92061C9.84123 0 17.7608 0 33.6 0H36.4C52.2392 0 60.1588 0 65.0794 4.92061C70 9.84123 70 17.7608 70 33.6V36.4C70 52.2392 70 60.1588 65.0794 65.0794C60.1588 70 52.2392 70 36.4 70H33.6C17.7608 70 9.84123 70 4.92061 65.0794C0 60.1588 0 52.2392 0 36.4V33.6Z" fill="#DD010D"/>
<path fill-rule="evenodd" clip-rule="evenodd" d="M26.0342 47V22C35.1274 26.1761 42.1701 30.2104 50.4995 34.5598C43.6296 38.2784 35.1274 42.4507 26.0342 47Z" fill="white"/>
</svg>
