<svg width="16" height="20" viewBox="0 0 16 20" fill="none" xmlns="http://www.w3.org/2000/svg">
<path d="M7.88809 0C3.81421 0 0.5 3.31421 0.5 7.38809C0.5 8.72925 1.10148 10.1717 1.12668 10.2325C1.32095 10.6936 1.70426 11.4098 1.98066 11.8296L7.04628 19.505C7.25359 19.8196 7.56041 20 7.88809 20C8.21578 20 8.5226 19.8196 8.7299 19.5054L13.796 11.8296C14.0728 11.4098 14.4557 10.6936 14.6499 10.2325C14.6751 10.1721 15.2762 8.72968 15.2762 7.38809C15.2762 3.31421 11.962 0 7.88809 0ZM13.8485 9.89526C13.6751 10.3086 13.3183 10.9748 13.0702 11.3512L8.00413 19.0269C7.90417 19.1786 7.87245 19.1786 7.77249 19.0269L2.70643 11.3512C2.45828 10.9748 2.10148 10.3081 1.92807 9.89483C1.92069 9.87701 1.36919 8.54933 1.36919 7.38809C1.36919 3.79357 4.29357 0.869187 7.88809 0.869187C11.4826 0.869187 14.407 3.79357 14.407 7.38809C14.407 8.55106 13.8542 9.88223 13.8485 9.89526Z" fill="#939393"/>
<path d="M7.88791 3.47717C5.73102 3.47717 3.97656 5.23206 3.97656 7.38852C3.97656 9.54497 5.73102 11.2999 7.88791 11.2999C10.0448 11.2999 11.7992 9.54497 11.7992 7.38852C11.7992 5.23206 10.0448 3.47717 7.88791 3.47717ZM7.88791 10.4307C6.21081 10.4307 4.84575 9.06605 4.84575 7.38852C4.84575 5.71098 6.21081 4.34636 7.88791 4.34636C9.565 4.34636 10.9301 5.71098 10.9301 7.38852C10.9301 9.06605 9.565 10.4307 7.88791 10.4307Z" fill="#939393"/>
</svg>
