<svg width="20" height="20" viewBox="0 0 20 20" fill="none" xmlns="http://www.w3.org/2000/svg">
<path fill-rule="evenodd" clip-rule="evenodd" d="M4.93816 1.12795C4.70375 0.893607 4.38587 0.761963 4.05441 0.761963C3.72296 0.761963 3.40507 0.893607 3.17066 1.12795L1.59858 2.70003C1.15144 3.14709 0.824603 3.69995 0.648456 4.30722C0.472308 4.91448 0.452571 5.55643 0.591078 6.17336L0.592328 6.17878C1.05816 8.13461 2.26399 11.2988 5.4265 14.4613C8.58899 17.6238 11.754 18.8296 13.7107 19.2925L13.7152 19.2934C14.3316 19.4317 14.973 19.4121 15.5797 19.2361C16.1865 19.0602 16.7389 18.7338 17.1857 18.2871C17.7186 17.7584 18.3248 17.1521 18.7598 16.7171C18.8761 16.6012 18.9683 16.4634 19.0312 16.3118C19.0941 16.1601 19.1265 15.9975 19.1265 15.8334C19.1265 15.6692 19.0941 15.5066 19.0312 15.355C18.9683 15.2033 18.8761 15.0656 18.7598 14.9496L15.7715 11.9613C15.5371 11.7269 15.2192 11.5953 14.8877 11.5953C14.5563 11.5953 14.2384 11.7269 14.004 11.9613L12.5515 13.4134C12.4875 13.4775 12.4043 13.5189 12.3146 13.5315C12.2249 13.5441 12.1336 13.527 12.0544 13.4829C10.9279 12.7523 9.88146 11.9052 8.93233 10.9554C7.67983 9.70295 6.83941 8.5092 6.41191 7.84045C6.36556 7.76138 6.34671 7.66917 6.35832 7.57826C6.36993 7.48734 6.41134 7.40283 6.47608 7.33795L6.47733 7.3367C6.88358 6.9267 7.48316 6.32753 7.92649 5.88378C8.04273 5.76782 8.13494 5.63008 8.19786 5.47843C8.26078 5.32678 8.29317 5.16421 8.29317 5.00003C8.29317 4.83585 8.26078 4.67328 8.19786 4.52163C8.13494 4.36998 8.04273 4.23224 7.92649 4.11628L4.93816 1.12795ZM4.34899 1.71711L7.33733 4.70545C7.41524 4.78369 7.45898 4.88961 7.45898 5.00003C7.45898 5.11045 7.41524 5.21637 7.33733 5.29461C6.85237 5.77869 6.36848 6.26383 5.88566 6.75003C5.68818 6.94792 5.56294 7.20644 5.53007 7.48407C5.4972 7.76171 5.5586 8.04233 5.70441 8.28086C6.14941 8.97836 7.02899 10.2304 8.34316 11.5446C9.33465 12.5367 10.4277 13.4217 11.6044 14.185L11.6161 14.1921C11.8551 14.3348 12.1349 14.3937 12.4112 14.3593C12.6874 14.325 12.9443 14.1994 13.1411 14.0025L14.5932 12.5504C14.6714 12.4725 14.7773 12.4288 14.8877 12.4288C14.9982 12.4288 15.1041 12.4725 15.1823 12.5504L18.1707 15.5388C18.2486 15.617 18.2923 15.7229 18.2923 15.8334C18.2923 15.9438 18.2486 16.0497 18.1707 16.1279C17.7361 16.5621 17.1311 17.1675 16.5977 17.6967L16.5965 17.6979C16.2493 18.045 15.8201 18.2988 15.3487 18.4356C14.8772 18.5725 14.3789 18.5881 13.8998 18.4809C12.0357 18.0396 9.02691 16.8834 6.01566 13.8721C3.00441 10.8609 1.84816 7.85211 1.40358 5.98836C1.29633 5.50882 1.31198 5.00996 1.44907 4.53809C1.58616 4.06621 1.84025 3.63662 2.18774 3.2892L3.75983 1.71711C3.83807 1.6392 3.94399 1.59546 4.05441 1.59546C4.16483 1.59546 4.27075 1.6392 4.34899 1.71711ZM9.88774 2.9167C13.7973 2.9167 16.9711 6.09045 16.9711 10C16.9711 10.1105 17.015 10.2165 17.0931 10.2947C17.1713 10.3728 17.2772 10.4167 17.3877 10.4167C17.4983 10.4167 17.6042 10.3728 17.6824 10.2947C17.7605 10.2165 17.8044 10.1105 17.8044 10C17.8044 5.63086 14.2569 2.08336 9.88774 2.08336C9.77724 2.08336 9.67126 2.12726 9.59312 2.2054C9.51498 2.28354 9.47108 2.38952 9.47108 2.50003C9.47108 2.61054 9.51498 2.71652 9.59312 2.79466C9.67126 2.8728 9.77724 2.9167 9.88774 2.9167Z" fill="#939393"/>
<path fill-rule="evenodd" clip-rule="evenodd" d="M9.88786 5.41671C12.4174 5.41671 14.4712 7.47046 14.4712 10C14.4712 10.1105 14.5151 10.2165 14.5932 10.2947C14.6714 10.3728 14.7774 10.4167 14.8879 10.4167C14.9984 10.4167 15.1043 10.3728 15.1825 10.2947C15.2606 10.2165 15.3045 10.1105 15.3045 10C15.3045 7.01046 12.8774 4.58337 9.88786 4.58337C9.77735 4.58337 9.67137 4.62727 9.59323 4.70541C9.51509 4.78355 9.47119 4.88953 9.47119 5.00004C9.47119 5.11055 9.51509 5.21653 9.59323 5.29467C9.67137 5.37281 9.77735 5.41671 9.88786 5.41671Z" fill="#939393"/>
<path fill-rule="evenodd" clip-rule="evenodd" d="M9.88786 7.91671C11.0379 7.91671 11.9712 8.85004 11.9712 10C11.9712 10.1105 12.0151 10.2165 12.0932 10.2947C12.1714 10.3728 12.2774 10.4167 12.3879 10.4167C12.4984 10.4167 12.6043 10.3728 12.6825 10.2947C12.7606 10.2165 12.8045 10.1105 12.8045 10C12.8045 8.39046 11.4974 7.08337 9.88786 7.08337C9.77735 7.08337 9.67137 7.12727 9.59323 7.20541C9.51509 7.28355 9.47119 7.38953 9.47119 7.50004C9.47119 7.61055 9.51509 7.71653 9.59323 7.79467C9.67137 7.87281 9.77735 7.91671 9.88786 7.91671Z" fill="#939393"/>
</svg>
