<svg width="28" height="29" viewBox="0 0 28 29" fill="none" xmlns="http://www.w3.org/2000/svg">
<rect x="28" y="28.0498" width="28" height="28" rx="14" transform="rotate(-180 28 28.0498)" fill="#EFEEEE"/>
<path d="M14 8.21647C12.4529 8.21647 10.9692 8.83105 9.87521 9.92501C8.78125 11.019 8.16667 12.5027 8.16667 14.0498V15.2165H9.33333C9.64275 15.2165 9.9395 15.3394 10.1583 15.5582C10.3771 15.777 10.5 16.0737 10.5 16.3831V19.8831C10.5 20.1926 10.3771 20.4893 10.1583 20.7081C9.9395 20.9269 9.64275 21.0498 9.33333 21.0498H8.16667C7.85725 21.0498 7.5605 20.9269 7.34171 20.7081C7.12292 20.4893 7 20.1926 7 19.8831V14.0498C7 13.1306 7.18106 12.2203 7.53284 11.371C7.88463 10.5217 8.40024 9.75007 9.05025 9.10006C9.70026 8.45005 10.4719 7.93443 11.3212 7.58265C12.1705 7.23087 13.0807 7.0498 14 7.0498C14.9193 7.0498 15.8295 7.23087 16.6788 7.58265C17.5281 7.93443 18.2997 8.45005 18.9497 9.10006C19.5998 9.75007 20.1154 10.5217 20.4672 11.371C20.8189 12.2203 21 13.1306 21 14.0498V19.8831C21 20.1926 20.8771 20.4893 20.6583 20.7081C20.4395 20.9269 20.1428 21.0498 19.8333 21.0498H18.6667C18.3572 21.0498 18.0605 20.9269 17.8417 20.7081C17.6229 20.4893 17.5 20.1926 17.5 19.8831V16.3831C17.5 16.0737 17.6229 15.777 17.8417 15.5582C18.0605 15.3394 18.3572 15.2165 18.6667 15.2165H19.8333V14.0498C19.8333 12.5027 19.2188 11.019 18.1248 9.92501C17.0308 8.83105 15.5471 8.21647 14 8.21647Z" fill="black"/>
</svg>
