<svg width="28" height="29" viewBox="0 0 28 29" fill="none" xmlns="http://www.w3.org/2000/svg">
<rect x="28" y="28.3711" width="28" height="28" rx="14" transform="rotate(-180 28 28.3711)" fill="black"/>
<path d="M14 8.53776C12.4529 8.53776 10.9692 9.15234 9.87521 10.2463C8.78125 11.3403 8.16667 12.824 8.16667 14.3711V15.5378H9.33333C9.64275 15.5378 9.9395 15.6607 10.1583 15.8795C10.3771 16.0983 10.5 16.395 10.5 16.7044V20.2044C10.5 20.5138 10.3771 20.8106 10.1583 21.0294C9.9395 21.2482 9.64275 21.3711 9.33333 21.3711H8.16667C7.85725 21.3711 7.5605 21.2482 7.34171 21.0294C7.12292 20.8106 7 20.5138 7 20.2044V14.3711C7 13.4518 7.18106 12.5416 7.53284 11.6923C7.88463 10.843 8.40024 10.0714 9.05025 9.42135C9.70026 8.77134 10.4719 8.25572 11.3212 7.90394C12.1705 7.55215 13.0807 7.37109 14 7.37109C14.9193 7.37109 15.8295 7.55215 16.6788 7.90394C17.5281 8.25572 18.2997 8.77134 18.9497 9.42135C19.5998 10.0714 20.1154 10.843 20.4672 11.6923C20.8189 12.5416 21 13.4518 21 14.3711V20.2044C21 20.5138 20.8771 20.8106 20.6583 21.0294C20.4395 21.2482 20.1428 21.3711 19.8333 21.3711H18.6667C18.3572 21.3711 18.0605 21.2482 17.8417 21.0294C17.6229 20.8106 17.5 20.5138 17.5 20.2044V16.7044C17.5 16.395 17.6229 16.0983 17.8417 15.8795C18.0605 15.6607 18.3572 15.5378 18.6667 15.5378H19.8333V14.3711C19.8333 12.824 19.2188 11.3403 18.1248 10.2463C17.0308 9.15234 15.5471 8.53776 14 8.53776Z" fill="white"/>
</svg>
