<svg width="21" height="21" viewBox="0 0 21 21" fill="none" xmlns="http://www.w3.org/2000/svg">
<path d="M10.8301 0.311523C5.31618 0.311523 0.830078 4.79762 0.830078 10.3115C0.830078 15.8254 5.31618 20.3115 10.8301 20.3115C16.344 20.3115 20.8301 15.8254 20.8301 10.3115C20.8301 4.79762 16.344 0.311523 10.8301 0.311523ZM10.8301 19.0615C6.00524 19.0615 2.08008 15.1364 2.08008 10.3115C2.08008 5.48669 6.00524 1.56153 10.8301 1.56153C15.6549 1.56153 19.5801 5.48669 19.5801 10.3115C19.5801 15.1364 15.6549 19.0615 10.8301 19.0615Z" fill="black"/>
<path d="M11.4551 4.06152H10.2051V10.5703L14.1382 14.5034L15.022 13.6196L11.4551 10.0527V4.06152Z" fill="black"/>
</svg>
