<svg width="41" height="41" viewBox="0 0 41 41" fill="none" xmlns="http://www.w3.org/2000/svg">
<rect x="0.830078" y="0.739014" width="40" height="40" rx="20" fill="black"/>
<path d="M20.8296 11.2825C21.1055 11.2827 21.3296 11.5065 21.3296 11.7825V20.2395H29.7866C30.0625 20.2398 30.2866 20.4635 30.2866 20.7395C30.2865 21.0154 30.0625 21.2392 29.7866 21.2395H21.3296V29.6956C21.3296 29.9715 21.1055 30.1953 20.8296 30.1956C20.5534 30.1956 20.3296 29.9717 20.3296 29.6956V21.2395H11.8735C11.5975 21.2395 11.3737 21.0155 11.3735 20.7395C11.3735 20.4634 11.5974 20.2395 11.8735 20.2395H20.3296V11.7825C20.3296 11.5063 20.5534 11.2825 20.8296 11.2825Z" fill="white"/>
</svg>
