<svg width="51" height="36" viewBox="0 0 51 36" fill="none" xmlns="http://www.w3.org/2000/svg">
<path d="M19.1938 14.4143C21.6783 14.4144 23.8443 15.9166 24.8638 18.1301C25.0778 18.0974 25.2847 18.0251 25.5024 18.0227H25.5093C27.9902 18.023 30.02 20.0528 30.02 22.5334V22.5383C30.02 22.597 29.9997 22.6525 29.9976 22.7112C32.0454 23.1351 33.6284 24.8745 33.6284 27.0442C33.6283 29.525 31.5985 31.5549 29.1177 31.5549H13.7808C10.8024 31.5549 8.36768 29.1199 8.36768 26.1418C8.36768 23.4771 10.3511 21.3478 12.894 20.9084C12.8916 20.8508 12.8784 20.7932 12.8784 20.7356V20.7288C12.8786 17.361 15.5423 14.592 18.8696 14.4221L19.1938 14.4143ZM33.7983 3.92407C35.3189 3.92407 36.6451 4.84275 37.269 6.19751C37.3999 6.17747 37.5265 6.13354 37.6597 6.13208H37.6636C39.182 6.13219 40.4243 7.37456 40.4243 8.89282V8.89575C40.4243 8.93157 40.412 8.96542 40.4106 9.00122C41.6639 9.26069 42.6323 10.3257 42.6323 11.6536C42.6322 13.1718 41.3898 14.4143 39.8716 14.4143H30.4858C28.663 14.4143 27.1724 12.9235 27.1724 11.1008C27.1725 9.47014 28.3867 8.16764 29.9429 7.89868C29.9414 7.86337 29.9331 7.82755 29.9331 7.79224V7.78833C29.9332 5.66067 31.6705 3.92321 33.7983 3.9231V3.92407Z" fill="#EFEEEE"/>
</svg>
