<svg width="65" height="65" viewBox="0 0 65 65" fill="none" xmlns="http://www.w3.org/2000/svg">
<circle cx="32.1541" cy="32.5341" r="32.0985" fill="#DD010D"/>
<path d="M40.7306 18.0066C38.7449 18.0066 36.9244 18.6358 35.3197 19.8769C33.7813 21.0667 32.757 22.5821 32.154 23.6841C31.551 22.582 30.5267 21.0667 28.9883 19.8769C27.3836 18.6358 25.563 18.0066 23.5773 18.0066C18.0359 18.0066 13.8571 22.5391 13.8571 28.5497C13.8571 35.0433 19.0705 39.486 26.9629 46.2118C28.3031 47.354 29.8223 48.6486 31.4012 50.0294C31.6094 50.2116 31.8767 50.312 32.154 50.312C32.4313 50.312 32.6986 50.2116 32.9067 50.0295C34.4858 48.6485 36.0049 47.3539 37.3459 46.2111C45.2375 39.486 50.4509 35.0433 50.4509 28.5497C50.4509 22.5391 46.272 18.0066 40.7306 18.0066Z" fill="#EFEEEE"/>
</svg>
