<svg width="65" height="65" viewBox="0 0 65 65" fill="none" xmlns="http://www.w3.org/2000/svg">
<circle cx="32.0618" cy="32.739" r="32" fill="#6D59EA"/>
<path d="M32.6933 30.5676C32.5169 30.7162 32.2931 30.7978 32.0617 30.7978C31.8304 30.7978 31.6066 30.7162 31.4302 30.5676C27.977 27.6587 26.2014 24.8356 26.2014 22.0625C26.2013 18.8463 28.8251 16.239 32.0617 16.239C35.2983 16.239 37.9221 18.8463 37.9221 22.0625C37.9221 24.8356 36.1465 27.6587 32.6933 30.5676ZM32.6933 34.9104C36.1465 37.8193 37.9221 40.6424 37.9221 43.4155C37.9221 46.6318 35.2983 49.239 32.0617 49.239C28.8251 49.239 26.2013 46.6318 26.2013 43.4155C26.2013 40.6424 27.9769 37.8193 31.4301 34.9104C31.6066 34.7618 31.8304 34.6802 32.0617 34.6802C32.293 34.6802 32.5169 34.7618 32.6933 34.9104ZM34.2469 33.3667C34.0973 33.1913 34.0152 32.9689 34.0152 32.739C34.0152 32.5092 34.0973 32.2868 34.2469 32.1114C37.1743 28.6799 40.0152 26.9155 42.8058 26.9155C46.0424 26.9155 48.6662 29.5227 48.6662 32.739C48.6662 35.9553 46.0424 38.5625 42.8058 38.5625C40.0151 38.5625 37.1742 36.7981 34.2469 33.3667ZM29.8765 33.3667C26.9492 36.7981 24.1083 38.5625 21.3177 38.5625C18.081 38.5625 15.4573 35.9553 15.4573 32.739C15.4573 29.5227 18.081 26.9155 21.3177 26.9155C24.1083 26.9155 26.9492 28.6799 29.8765 32.1114C30.0261 32.2867 30.1082 32.5091 30.1082 32.739C30.1082 32.9689 30.0261 33.1913 29.8765 33.3667Z" fill="#EFEEEE"/>
</svg>
