<svg width="40" height="40" viewBox="0 0 40 40" fill="none" xmlns="http://www.w3.org/2000/svg">
<circle cx="20.3301" cy="20.2388" r="19.5" fill="#2AABEE"/>
<path d="M30.9652 21.8331C31.1433 22.2716 30.9322 22.7714 30.4937 22.9496L28.112 23.9182L30.3163 25.2427C30.7274 25.4775 30.8703 26.001 30.6356 26.4121C30.4008 26.8232 29.8773 26.9661 29.4662 26.7314C29.4551 26.7251 29.4442 26.7185 29.4334 26.7117L27.2293 25.3874L27.4923 27.9459C27.533 28.4176 27.1838 28.8329 26.7121 28.8737C26.2511 28.9136 25.8417 28.5803 25.7872 28.1209L25.3929 24.2839L21.1808 21.7536V26.6673L24.2665 28.9816C24.6452 29.2656 24.722 29.8029 24.4379 30.1816C24.1539 30.5603 23.6166 30.637 23.2379 30.353L21.1807 28.8102V31.3816C21.1807 31.855 20.7969 32.2388 20.3236 32.2388C19.8502 32.2388 19.4664 31.855 19.4664 31.3816V28.8102L17.4092 30.353C17.0305 30.637 16.4933 30.5603 16.2092 30.1816C15.9252 29.8029 16.0019 29.2656 16.3806 28.9816L19.4663 26.6673V21.7536L15.2546 24.2845L14.8603 28.1215C14.8196 28.5932 14.4042 28.9424 13.9326 28.9017C13.4609 28.8609 13.1116 28.4456 13.1524 27.9739C13.1532 27.9648 13.1541 27.9556 13.1552 27.9465L13.4182 25.388L11.2141 26.7123C10.8139 26.9651 10.2845 26.8457 10.0316 26.4455C9.77879 26.0453 9.89823 25.5159 10.2984 25.263C10.3092 25.2562 10.3202 25.2497 10.3312 25.2433L12.5354 23.9188L10.1538 22.9502C9.71809 22.765 9.51504 22.2617 9.70025 21.8261C9.88128 21.4002 10.3677 21.1949 10.7991 21.3622L14.3722 22.8153L18.6596 20.2387L14.3718 17.6624L10.7988 19.1158C10.3574 19.2871 9.86083 19.068 9.68958 18.6267C9.52221 18.1953 9.7275 17.7089 10.1534 17.5278L12.5351 16.5592L10.331 15.2345C9.91988 14.9997 9.77699 14.4761 10.0117 14.0651C10.2465 13.654 10.77 13.5111 11.181 13.7458C11.1921 13.7522 11.203 13.7587 11.2138 13.7655L13.4179 15.0899L13.1549 12.5313C13.1066 12.0604 13.4492 11.6395 13.9201 11.5912C14.391 11.5429 14.812 11.8854 14.8603 12.3563L15.2546 16.1934L19.4666 18.724V13.8102L16.3808 11.4959C16.002 11.212 15.925 10.6748 16.2089 10.2959C16.4928 9.91709 17.03 9.84012 17.4089 10.124L17.4095 10.1245L19.4666 11.6673V9.09592C19.4666 8.62255 19.8503 8.23877 20.3237 8.23877C20.7971 8.23877 21.1809 8.62255 21.1809 9.09592V11.6674L23.238 10.1245C23.6167 9.8405 24.154 9.91724 24.4381 10.2959C24.7221 10.6747 24.6454 11.2119 24.2667 11.496L21.1809 13.8103V18.724L25.3929 16.1931L25.7872 12.356C25.843 11.886 26.2694 11.5502 26.7395 11.606C27.199 11.6606 27.5322 12.07 27.4923 12.5309L27.2293 15.0895L29.4334 13.7652C29.8336 13.5123 30.363 13.6318 30.6159 14.032C30.8687 14.4322 30.7492 14.9617 30.349 15.2145C30.3382 15.2213 30.3273 15.2279 30.3162 15.2342L28.1119 16.5587L30.4936 17.5273C30.9293 17.7125 31.1323 18.2158 30.9471 18.6515C30.7661 19.0774 30.2796 19.2827 29.8482 19.1153L26.2752 17.6623L21.9878 20.2389L26.2755 22.8152L29.8486 21.3622C30.2864 21.1836 30.786 21.3937 30.9645 21.8315L30.9652 21.8331Z" fill="#F5F5F5"/>
</svg>
