<svg width="32" height="36" viewBox="0 0 32 36" fill="none" xmlns="http://www.w3.org/2000/svg">
<path d="M16.5113 28.9492L19.8754 30.2712L20.6701 33.7301C20.8978 34.7217 21.413 35.239 22.0288 35.239C22.4793 35.239 22.9844 34.9624 23.4715 34.3919L25.7938 31.6702L29.4014 31.9993C29.5221 32.01 29.6385 32.0151 29.7484 32.0151C31.2753 32.0151 31.8034 30.9869 30.911 29.5973L28.9832 26.5961L30.4174 23.3384C31.0144 21.9847 30.523 21.0894 29.3209 21.0894C29.0888 21.0894 28.8309 21.1232 28.5492 21.1922L25.0357 22.0594L22.314 19.7185C21.8161 19.2903 21.3397 19.0855 20.9302 19.0855C20.2296 19.0855 19.7267 19.6855 19.6505 20.7934L19.4062 24.3313L16.29 26.1405C14.7438 27.0372 14.843 28.2953 16.5113 28.9492ZM28.2453 1.70908C28.0545 1.71138 27.8646 1.73671 27.6798 1.78453L25.1026 2.41969L23.1073 0.703171C22.7423 0.389183 22.3923 0.239014 22.092 0.239014C21.5783 0.239014 21.2097 0.678741 21.1536 1.49209L20.9754 4.08591L18.6899 5.413C17.5561 6.07115 17.6286 6.99372 18.8515 7.47368L21.3189 8.44151L21.9016 10.9778C22.069 11.705 22.4462 12.0843 22.8989 12.0843C23.2294 12.0843 23.5994 11.8824 23.9558 11.465L25.6587 9.46898L28.3042 9.70824C28.394 9.71686 28.4795 9.72046 28.5607 9.72046C29.6795 9.72046 30.066 8.96602 29.4115 7.9479L27.9974 5.7471L29.05 3.35878C29.4876 2.3658 29.1269 1.70908 28.2453 1.70908ZM8.59266 11.6726C8.45399 11.6726 8.29879 11.6928 8.12994 11.7337L6.02183 12.2539L4.38866 10.8492C4.09048 10.5927 3.80452 10.4691 3.55879 10.4691C3.13846 10.4691 2.83668 10.8298 2.7907 11.4945L2.64484 13.6169L0.774563 14.7026C-0.153031 15.2415 -0.0933966 15.9959 0.906768 16.3889L2.92578 17.1807L3.40287 19.2558C3.53939 19.8514 3.84834 20.1611 4.21838 20.1611C4.48853 20.1611 4.79174 19.9958 5.08346 19.6538L6.47737 18.0207L8.64152 18.2183C8.71337 18.2254 8.78378 18.2283 8.84988 18.2283C9.76598 18.2283 10.0821 17.6104 9.54684 16.7769L8.39004 14.9771L9.25081 13.0227C9.60935 12.2094 9.31404 11.6726 8.59266 11.6726Z" fill="#EFEEEE"/>
</svg>
