<svg width="40" height="40" viewBox="0 0 40 40" fill="none" xmlns="http://www.w3.org/2000/svg">
<circle cx="20.3301" cy="20.239" r="19.5" fill="#E99F31"/>
<path d="M20.3716 27.169C24.3481 27.169 27.5716 23.9455 27.5716 19.969C27.5716 15.9926 24.3481 12.769 20.3716 12.769C16.3952 12.769 13.1716 15.9926 13.1716 19.969C13.1716 23.9455 16.3952 27.169 20.3716 27.169Z" fill="#F5F5F5"/>
<path d="M20.3718 11.5692C20.6901 11.5692 20.9953 11.4428 21.2204 11.2178C21.4454 10.9927 21.5718 10.6875 21.5718 10.3692V9.16924C21.5718 8.85098 21.4454 8.54575 21.2204 8.32071C20.9953 8.09567 20.6901 7.96924 20.3718 7.96924C20.0536 7.96924 19.7483 8.09567 19.5233 8.32071C19.2983 8.54575 19.1718 8.85098 19.1718 9.16924V10.3692C19.1718 10.6875 19.2983 10.9927 19.5233 11.2178C19.7483 11.4428 20.0536 11.5692 20.3718 11.5692ZM27.1602 14.3808C27.3178 14.381 27.4739 14.35 27.6195 14.2897C27.7651 14.2293 27.8973 14.1408 28.0086 14.0292L28.857 13.1808C28.9716 13.0701 29.0631 12.9377 29.1259 12.7913C29.1888 12.6449 29.2219 12.4875 29.2233 12.3281C29.2247 12.1688 29.1943 12.0108 29.134 11.8633C29.0737 11.7158 28.9846 11.5818 28.8719 11.4692C28.7592 11.3565 28.6252 11.2674 28.4778 11.2071C28.3303 11.1467 28.1723 11.1164 28.0129 11.1177C27.8536 11.1191 27.6961 11.1522 27.5497 11.2151C27.4033 11.278 27.2709 11.3694 27.1602 11.484L26.3118 12.3324C26.1441 12.5003 26.0298 12.7141 25.9835 12.9468C25.9372 13.1795 25.961 13.4208 26.0518 13.64C26.1426 13.8593 26.2964 14.0467 26.4937 14.1785C26.691 14.3104 26.9229 14.3808 27.1602 14.3808ZM28.7718 19.9692C28.7718 20.2875 28.8983 20.5927 29.1233 20.8178C29.3483 21.0428 29.6536 21.1692 29.9718 21.1692H31.1718C31.4901 21.1692 31.7953 21.0428 32.0204 20.8178C32.2454 20.5927 32.3718 20.2875 32.3718 19.9692C32.3718 19.651 32.2454 19.3458 32.0204 19.1207C31.7953 18.8957 31.4901 18.7692 31.1718 18.7692H29.9718C29.6536 18.7692 29.3483 18.8957 29.1233 19.1207C28.8983 19.3458 28.7718 19.651 28.7718 19.9692ZM28.0086 25.9092C27.8979 25.7946 27.7655 25.7032 27.6191 25.6403C27.4727 25.5774 27.3152 25.5443 27.1559 25.5429C26.9966 25.5416 26.8386 25.5719 26.6911 25.6323C26.5436 25.6926 26.4096 25.7817 26.297 25.8944C26.1843 26.007 26.0952 26.141 26.0348 26.2885C25.9745 26.436 25.9441 26.594 25.9455 26.7533C25.9469 26.9127 25.98 27.0701 26.0429 27.2165C26.1058 27.3629 26.1972 27.4953 26.3118 27.606L27.1602 28.4544C27.2714 28.5663 27.4036 28.655 27.5492 28.7156C27.6948 28.7761 27.8509 28.8073 28.0086 28.8073C28.1663 28.8073 28.3225 28.7761 28.4681 28.7156C28.6136 28.655 28.7458 28.5663 28.857 28.4544C29.082 28.2294 29.2084 27.9242 29.2084 27.606C29.2084 27.2878 29.082 26.9827 28.857 26.7576L28.0086 25.9092ZM19.1718 29.5692V30.7692C19.1718 31.0875 19.2983 31.3927 19.5233 31.6178C19.7483 31.8428 20.0536 31.9692 20.3718 31.9692C20.6901 31.9692 20.9953 31.8428 21.2204 31.6178C21.4454 31.3927 21.5718 31.0875 21.5718 30.7692V29.5692C21.5718 29.251 21.4454 28.9458 21.2204 28.7207C20.9953 28.4957 20.6901 28.3692 20.3718 28.3692C20.0536 28.3692 19.7483 28.4957 19.5233 28.7207C19.2983 28.9458 19.1718 29.251 19.1718 29.5692ZM12.735 25.9092L11.8866 26.7576C11.772 26.8683 11.6806 27.0007 11.6177 27.1472C11.5548 27.2936 11.5217 27.451 11.5203 27.6104C11.5189 27.7697 11.5493 27.9277 11.6096 28.0752C11.67 28.2227 11.7591 28.3566 11.8718 28.4693C11.9844 28.582 12.1184 28.6711 12.2659 28.7314C12.4134 28.7918 12.5714 28.8221 12.7307 28.8207C12.89 28.8194 13.0475 28.7863 13.1939 28.7234C13.3403 28.6605 13.4727 28.569 13.5834 28.4544L14.4318 27.606C14.5464 27.4953 14.6379 27.3629 14.7007 27.2165C14.7636 27.0701 14.7967 26.9127 14.7981 26.7533C14.7995 26.594 14.7691 26.436 14.7088 26.2885C14.6485 26.141 14.5594 26.007 14.4467 25.8944C14.334 25.7817 14.2 25.6926 14.0526 25.6323C13.9051 25.5719 13.7471 25.5416 13.5877 25.5429C13.4284 25.5443 13.2709 25.5774 13.1245 25.6403C12.9781 25.7032 12.8457 25.7946 12.735 25.9092ZM9.57183 21.1692H10.7718C11.0901 21.1692 11.3953 21.0428 11.6204 20.8178C11.8454 20.5927 11.9718 20.2875 11.9718 19.9692C11.9718 19.651 11.8454 19.3458 11.6204 19.1207C11.3953 18.8957 11.0901 18.7692 10.7718 18.7692H9.57183C9.25357 18.7692 8.94834 18.8957 8.7233 19.1207C8.49825 19.3458 8.37183 19.651 8.37183 19.9692C8.37183 20.2875 8.49825 20.5927 8.7233 20.8178C8.94834 21.0428 9.25357 21.1692 9.57183 21.1692ZM12.735 14.0292C12.8462 14.1411 12.9784 14.2298 13.124 14.2904C13.2696 14.3509 13.4257 14.3821 13.5834 14.3821C13.7411 14.3821 13.8973 14.3509 14.0429 14.2904C14.1884 14.2298 14.3206 14.1411 14.4318 14.0292C14.6568 13.8042 14.7832 13.499 14.7832 13.1808C14.7832 12.8626 14.6568 12.5575 14.4318 12.3324L13.5834 11.484C13.4734 11.3668 13.3408 11.2729 13.1938 11.2079C13.0467 11.1429 12.8881 11.1081 12.7273 11.1056C12.5665 11.1031 12.4069 11.133 12.2579 11.1934C12.1089 11.2538 11.9735 11.3435 11.8598 11.4573C11.7462 11.571 11.6565 11.7064 11.5962 11.8555C11.5359 12.0045 11.5062 12.1642 11.5088 12.325C11.5114 12.4858 11.5463 12.6444 11.6114 12.7914C11.6765 12.9384 11.7705 13.0708 11.8878 13.1808L12.735 14.0292Z" fill="#F5F5F5"/>
</svg>
