<svg width="65" height="65" viewBox="0 0 65 65" fill="none" xmlns="http://www.w3.org/2000/svg">
<circle cx="32.4521" cy="32.739" r="32" fill="#38A3A5"/>
<path fill-rule="evenodd" clip-rule="evenodd" d="M31.927 12.1278C31.9612 12.0153 32.0306 11.9168 32.125 11.8468C32.2194 11.7768 32.3339 11.739 32.4514 11.739C32.5689 11.739 32.6834 11.7768 32.7778 11.8468C32.8722 11.9168 32.9416 12.0153 32.9758 12.1278L34.9636 18.7936C35.7702 21.499 37.2378 23.9608 39.2339 25.957C41.23 27.9532 43.6918 29.4209 46.3971 30.2276L53.063 32.2155C53.1753 32.2497 53.2736 32.3192 53.3435 32.4135C53.4133 32.5079 53.451 32.6222 53.451 32.7396C53.451 32.857 53.4133 32.9713 53.3435 33.0657C53.2736 33.16 53.1753 33.2295 53.063 33.2637L46.3971 35.2516C43.692 36.0583 41.2303 37.5259 39.2342 39.5221C37.2382 41.5182 35.7706 43.9799 34.9641 46.6851L32.9758 53.351C32.9415 53.4633 32.8721 53.5616 32.7777 53.6314C32.6833 53.7013 32.569 53.739 32.4516 53.739C32.3342 53.739 32.2199 53.7013 32.1255 53.6314C32.0312 53.5616 31.9617 53.4633 31.9275 53.351L29.9396 46.6851C29.1329 43.9799 27.6652 41.5182 25.669 39.5221C23.6728 37.5261 21.2109 36.0586 18.5056 35.252L11.8407 33.2633C11.7284 33.229 11.6301 33.1596 11.5602 33.0652C11.4903 32.9709 11.4526 32.8566 11.4526 32.7392C11.4526 32.6217 11.4903 32.5074 11.5602 32.4131C11.6301 32.3187 11.7284 32.2493 11.8407 32.215L18.5061 30.2271C21.2115 29.4205 23.6734 27.9529 25.6696 25.9567C27.6658 23.9605 29.1334 21.4986 29.94 18.7932L31.927 12.1278Z" fill="#EFEEEE"/>
</svg>
